<svg width="301" height="77" viewBox="0 0 301 77" fill="none" xmlns="http://www.w3.org/2000/svg">
<path d="M7.07518 23.7317H20.8642V21.3888H7.07518V3.50336H29.0234V1.16052H0V48.6806H30.1501V46.3377H7.07518V23.7317Z" fill="#F2EDDA"/>
<path d="M67.2899 26.0397C65.8213 24.7907 64.1661 23.6192 62.3789 22.5564C60.6072 21.5053 58.7811 20.4774 56.9433 19.5038C55.3581 18.6659 53.8312 17.8126 52.4014 16.9631C50.9794 16.1214 49.6894 15.2486 48.5666 14.3643C47.4787 13.507 46.6123 12.5839 45.9828 11.618C45.3806 10.691 45.0853 9.70961 45.0853 8.62741C45.0853 7.31247 45.4156 6.27681 46.0994 5.46613C46.7987 4.63605 47.7506 4.00379 48.924 3.58875C51.8458 2.56473 55.4902 2.79359 59.0297 4.01155C61.0812 4.71751 62.6742 5.54758 63.7621 6.47464L64.3488 6.97501L66.2254 4.4809L65.5299 4.06973C61.6057 1.76568 57.3668 0.598145 52.922 0.598145C51.8497 0.598145 50.6336 0.675722 49.3087 0.826998C47.9682 0.982153 46.6161 1.26143 45.2835 1.66871C43.9275 2.08375 42.6609 2.66946 41.5225 3.41421C40.3452 4.18222 39.3855 5.19073 38.6668 6.40482C37.9363 7.63442 37.5672 9.13942 37.5672 10.8733C37.5672 12.6071 38.0063 14.147 38.8727 15.5396C39.708 16.8855 40.8348 18.1384 42.2257 19.2594C43.5778 20.3532 45.1125 21.4005 46.791 22.3703C48.4345 23.3206 50.144 24.2631 51.8691 25.1669C53.567 26.0552 55.2182 26.9628 56.7801 27.8627C58.3187 28.751 59.7175 29.6936 60.9413 30.6672C62.1302 31.6175 63.0899 32.657 63.7932 33.7625C64.4653 34.8176 64.8072 36.0045 64.8072 37.2806C64.8072 38.9214 64.4614 40.3566 63.7776 41.5435C63.086 42.7421 62.1419 43.7428 60.9646 44.5186C59.7602 45.3138 58.377 45.915 56.8501 46.3029C55.3037 46.6985 53.6758 46.8964 52.0206 46.8964C49.5768 46.8964 47.2067 46.4348 44.9765 45.531C42.7464 44.6233 40.998 43.5644 39.778 42.3814L39.2068 41.8267L37.2525 44.282L37.8703 44.7242C39.9295 46.202 42.1364 47.3385 44.4404 48.0949C46.7444 48.8552 49.297 49.2431 52.0245 49.2431C55.9681 49.2431 59.4882 48.7427 62.4916 47.7613C65.5493 46.7606 67.9738 45.2323 69.695 43.2192C71.4434 41.175 72.3292 38.6111 72.3292 35.6011C72.3292 33.6423 71.8552 31.8502 70.9188 30.2754C70.0097 28.7432 68.7897 27.3197 67.2899 26.0474V26.0397Z" fill="#F2EDDA"/>
<path d="M110.312 26.0397C108.844 24.7907 107.188 23.6192 105.401 22.5564C103.629 21.5053 101.803 20.4774 99.9655 19.5038C98.3803 18.6659 96.8534 17.8126 95.4236 16.9631C94.0016 16.1214 92.7116 15.2486 91.5888 14.3643C90.5009 13.507 89.6345 12.5839 89.005 11.618C88.4028 10.691 88.1075 9.70961 88.1075 8.62741C88.1075 7.31247 88.4378 6.27681 89.1216 5.46613C89.821 4.63605 90.7729 4.00379 91.9462 3.58875C94.8641 2.56473 98.5086 2.79359 102.052 4.01155C104.103 4.71751 105.696 5.54758 106.784 6.47464L107.371 6.97501L109.248 4.4809L108.552 4.06973C104.628 1.76568 100.389 0.598145 95.9442 0.598145C94.8719 0.598145 93.6558 0.675722 92.3309 0.826998C90.9904 0.982153 89.6384 1.26143 88.3057 1.66871C86.9497 2.08375 85.6831 2.66946 84.5447 3.41421C83.3674 4.18222 82.4078 5.19073 81.689 6.40482C80.9585 7.63442 80.5894 9.13942 80.5894 10.8733C80.5894 12.6071 81.0285 14.147 81.8949 15.5396C82.7302 16.8855 83.857 18.1384 85.2479 19.2594C86.6 20.3532 88.1347 21.4005 89.8132 22.3703C91.4567 23.3206 93.1662 24.2631 94.8913 25.1669C96.5892 26.0552 98.2405 26.9628 99.8024 27.8627C101.341 28.751 102.74 29.6936 103.964 30.6672C105.152 31.6175 106.112 32.657 106.815 33.7625C107.488 34.8176 107.829 36.0045 107.829 37.2806C107.829 38.9214 107.484 40.3566 106.8 41.5435C106.108 42.7421 105.164 43.7428 103.987 44.5186C102.782 45.3138 101.399 45.915 99.8723 46.3029C98.3259 46.6985 96.698 46.8964 95.0428 46.8964C92.599 46.8964 90.2289 46.4348 87.9987 45.531C85.7686 44.6233 84.0202 43.5644 82.8002 42.3814L82.229 41.8267L80.2747 44.282L80.8925 44.7242C82.9517 46.202 85.1586 47.3385 87.4626 48.0949C89.7666 48.8552 92.3192 49.2431 95.0467 49.2431C98.9903 49.2431 102.51 48.7427 105.514 47.7613C108.572 46.7606 110.996 45.2323 112.717 43.2192C114.466 41.175 115.351 38.6111 115.351 35.6011C115.351 33.6423 114.877 31.8502 113.941 30.2754C113.032 28.7432 111.812 27.3197 110.312 26.0474V26.0397Z" fill="#F2EDDA"/>
<path d="M131.806 23.7317H145.595V21.3888H131.806V3.50336H160.285V1.16052H124.731V48.6806H178.628L176.192 46.3377H131.806V23.7317Z" fill="#F2EDDA"/>
<path d="M205.856 38.5063L167.022 1.16052H165.107V41.5551H167.454V11.362L206.287 48.6806H208.203V1.16052H205.856V38.5063Z" fill="#F2EDDA"/>
<path d="M233.566 5.85402C236.08 3.92234 238.901 2.94098 241.947 2.94098C245.312 2.94098 248.408 3.86028 251.144 5.67171C253.902 7.49866 256.218 10.0936 258.028 13.3829L258.32 13.9143L260.95 13.0183L260.534 12.2658C258.592 8.74765 255.992 5.9122 252.803 3.82924C249.399 1.68423 245.747 0.598145 241.947 0.598145C237.483 0.598145 233.36 1.7075 229.689 3.88743C226.025 6.06735 223.064 9.02305 220.885 12.6808C218.697 16.3425 217.59 20.4618 217.59 24.9187C217.59 29.3755 218.697 33.4987 220.885 37.172C223.064 40.8376 226.029 43.7971 229.693 45.9654C233.364 48.1376 237.487 49.2392 241.951 49.2392C245.747 49.2392 249.399 48.1609 252.814 46.0314C255.996 43.9523 258.592 41.1168 260.538 37.5987L260.954 36.8462L258.324 35.9502L258.032 36.4816C256.222 39.7709 253.906 42.362 251.147 44.1773C248.412 45.9809 245.316 46.8964 241.951 46.8964C238.901 46.8964 236.08 45.915 233.57 43.9833C231.021 42.0245 228.954 39.3481 227.427 36.0355C225.893 32.7113 225.116 28.9682 225.116 24.9187C225.116 20.8691 225.893 17.126 227.427 13.8018C228.954 10.4893 231.021 7.81672 233.57 5.85402H233.566Z" fill="#F2EDDA"/>
<path d="M277.925 46.3377V23.7317H291.714V21.3888H277.925V3.50336H299.873V1.16052H270.85V48.6806H301V46.3377H277.925Z" fill="#F2EDDA"/>
<path d="M184.452 76.7173C182.851 76.7173 181.48 76.4341 180.345 75.8717C179.207 75.3092 178.34 74.4287 177.738 73.234C177.136 72.0393 176.833 70.4956 176.833 68.6065C176.833 65.8487 177.505 63.8084 178.845 62.4818C180.186 61.1552 182.059 60.4919 184.452 60.4919C185.75 60.4919 186.919 60.713 187.964 61.1552C189.009 61.5974 189.841 62.2646 190.459 63.1528C191.076 64.045 191.387 65.1737 191.387 66.5469H188.341C188.341 65.7866 188.178 65.1427 187.848 64.6152C187.521 64.0877 187.067 63.6881 186.484 63.4127C185.905 63.1412 185.241 63.0016 184.495 63.0016C183.457 63.0016 182.595 63.2033 181.907 63.6067C181.219 64.0101 180.714 64.6074 180.384 65.3987C180.058 66.19 179.891 67.1752 179.891 68.3467V68.8509C179.891 70.0378 180.054 71.0308 180.384 71.8221C180.71 72.6134 181.215 73.2069 181.895 73.6025C182.575 73.9982 183.442 74.196 184.495 74.196C185.287 74.196 185.983 74.0641 186.577 73.7965C187.172 73.5288 187.634 73.1332 187.96 72.6095C188.287 72.0859 188.454 71.442 188.454 70.6779H191.383C191.383 72.0471 191.076 73.1797 190.466 74.0719C189.856 74.964 189.029 75.6234 187.984 76.0579C186.939 76.4923 185.761 76.7095 184.448 76.7095L184.452 76.7173Z" fill="#F2EDDA"/>
<path d="M202.736 76.4456V60.7711H205.712V73.8623H213.584V76.4456H202.736Z" fill="#F2EDDA"/>
<path d="M224.482 76.4456V60.7711H227.459V76.4456H224.482Z" fill="#F2EDDA"/>
<path d="M239.631 76.4456V60.7711H242.468L249.174 70.0261C249.251 70.1192 249.341 70.2433 249.45 70.4024C249.554 70.5614 249.655 70.7165 249.749 70.8717C249.842 71.023 249.9 71.1471 249.931 71.2363H250.044V60.7711H252.904V76.4456H250.087L243.357 67.1208C243.237 66.9385 243.093 66.7136 242.934 66.4459C242.775 66.1783 242.662 65.9921 242.604 65.8874H242.491V76.4418H239.631V76.4456Z" fill="#F2EDDA"/>
<path d="M265.08 76.4456V60.7711H268.056V76.4456H265.08Z" fill="#F2EDDA"/>
<path d="M287.145 76.7173C285.544 76.7173 284.173 76.4341 283.038 75.8717C281.9 75.3092 281.033 74.4287 280.431 73.234C279.829 72.0393 279.526 70.4956 279.526 68.6065C279.526 65.8487 280.198 63.8084 281.538 62.4818C282.879 61.1552 284.752 60.4919 287.145 60.4919C288.443 60.4919 289.612 60.713 290.657 61.1552C291.702 61.5974 292.534 62.2646 293.152 63.1528C293.769 64.045 294.08 65.1737 294.08 66.5469H291.034C291.034 65.7866 290.871 65.1427 290.541 64.6152C290.214 64.0877 289.76 63.6881 289.177 63.4127C288.598 63.1412 287.934 63.0016 287.188 63.0016C286.15 63.0016 285.288 63.2033 284.6 63.6067C283.912 64.0101 283.407 64.6074 283.077 65.3987C282.751 66.19 282.584 67.1752 282.584 68.3467V68.8509C282.584 70.0378 282.747 71.0308 283.077 71.8221C283.403 72.6134 283.908 73.2069 284.588 73.6025C285.268 73.9982 286.135 74.196 287.188 74.196C287.98 74.196 288.676 74.0641 289.27 73.7965C289.865 73.5288 290.327 73.1332 290.653 72.6095C290.98 72.0859 291.147 71.442 291.147 70.6779H294.076C294.076 72.0471 293.769 73.1797 293.159 74.0719C292.549 74.964 291.722 75.6234 290.677 76.0579C289.632 76.4923 288.454 76.7095 287.141 76.7095L287.145 76.7173Z" fill="#F2EDDA"/>
<path d="M141.006 76.4456V60.7711H143.982V73.8623H151.854V76.4456H141.006Z" fill="#F2EDDA"/>
<path d="M82.0581 76.4456V60.7711H85.0343V76.4456H82.0581Z" fill="#F2EDDA"/>
<path d="M104.189 76.7173C102.588 76.7173 101.217 76.4341 100.082 75.8717C98.9437 75.3092 98.0773 74.4287 97.475 73.234C96.8728 72.0393 96.5698 70.4956 96.5698 68.6065C96.5698 65.8487 97.2419 63.8084 98.5824 62.4818C99.9228 61.1552 101.796 60.4919 104.189 60.4919C105.487 60.4919 106.656 60.713 107.701 61.1552C108.746 61.5974 109.578 62.2646 110.196 63.1528C110.813 64.045 111.124 65.1737 111.124 66.5469H108.078C108.078 65.7866 107.915 65.1427 107.585 64.6152C107.258 64.0877 106.804 63.6881 106.221 63.4127C105.642 63.1412 104.978 63.0016 104.232 63.0016C103.194 63.0016 102.332 63.2033 101.644 63.6067C100.956 64.0101 100.451 64.6074 100.121 65.3987C99.7946 66.19 99.6275 67.1752 99.6275 68.3467V68.8509C99.6275 70.0378 99.7907 71.0308 100.121 71.8221C100.447 72.6134 100.952 73.2069 101.632 73.6025C102.312 73.9982 103.179 74.196 104.232 74.196C105.024 74.196 105.72 74.0641 106.314 73.7965C106.909 73.5288 107.371 73.1332 107.697 72.6095C108.024 72.0859 108.191 71.442 108.191 70.6779H111.12C111.12 72.0471 110.813 73.1797 110.203 74.0719C109.593 74.964 108.766 75.6234 107.721 76.0579C106.675 76.4923 105.498 76.7095 104.185 76.7095L104.189 76.7173Z" fill="#F2EDDA"/>
<path d="M116.61 76.4456L122.722 60.7711H126.475L132.61 76.4456H129.381L128.122 73.1098H120.935L119.676 76.4456H116.61ZM121.875 70.5924H127.163L125.581 66.3451C125.519 66.1938 125.449 65.9998 125.364 65.7632C125.278 65.5266 125.193 65.2667 125.1 64.9875C125.006 64.7043 124.917 64.4211 124.824 64.1302C124.731 63.8432 124.649 63.5833 124.571 63.3544H124.459C124.365 63.6609 124.257 64.01 124.128 64.4056C124 64.8013 123.872 65.1736 123.751 65.5227C123.631 65.8718 123.53 66.1472 123.452 66.3451L121.871 70.5924H121.875Z" fill="#F2EDDA"/>
<path d="M15.2266 76.0772L10.4749 64.2661L10.5875 67.1403V76.5349H8.09705V60.5734H11.4073L16.2951 72.6134L21.1828 60.5734H24.4931V76.5349H22.0026V67.1403L22.1153 64.2661L17.3635 76.0772H15.215H15.2266Z" fill="#F2EDDA"/>
<path d="M38.7134 69.5296V74.3627H47.3V76.5271H36.0636V60.5656H47.3V62.73H38.7134V67.4273H46.0217V69.5257H38.7134V69.5296Z" fill="#F2EDDA"/>
<path d="M64.8344 60.5693C69.7455 60.5693 72.3254 62.3691 72.3254 68.5055C72.3254 74.6419 69.6756 76.5309 64.8111 76.5309H59.1463V60.5693H64.8344ZM61.7961 62.7376V74.3665H64.7878C68.0981 74.3665 69.6289 72.9546 69.6289 68.5055C69.6289 64.0564 68.1681 62.7376 64.8111 62.7376H61.7961Z" fill="#F2EDDA"/>
</svg>
