<svg width="301" height="77" viewBox="0 0 301 77" fill="none" xmlns="http://www.w3.org/2000/svg">
<path d="M7.07518 23.1337H20.8642V20.7908H7.07518V2.90534H29.0234V0.5625H0V48.0826H30.1501V45.7397H7.07518V23.1337Z" fill="#4C4F54"/>
<path d="M67.2899 25.4415C65.8213 24.1925 64.1661 23.0211 62.3789 21.9583C60.6072 20.9071 58.7811 19.8792 56.9433 18.9056C55.3581 18.0678 53.8312 17.2144 52.4014 16.365C50.9794 15.5232 49.6894 14.6505 48.5666 13.7661C47.4787 12.9089 46.6123 11.9857 45.9828 11.0199C45.3806 10.0928 45.0853 9.11147 45.0853 8.02926C45.0853 6.71433 45.4156 5.67867 46.0994 4.86798C46.7987 4.03791 47.7506 3.40565 48.924 2.99061C51.8458 1.96659 55.4902 2.19544 59.0297 3.41341C61.0812 4.11936 62.6742 4.94944 63.7621 5.87649L64.3488 6.37687L66.2254 3.88275L65.5299 3.47159C61.6057 1.16754 57.3668 0 52.922 0C51.8497 0 50.6336 0.0775774 49.3087 0.228853C47.9682 0.384008 46.6161 0.663287 45.2835 1.07057C43.9275 1.48561 42.6609 2.07132 41.5225 2.81606C40.3452 3.58408 39.3855 4.59258 38.6668 5.80667C37.9363 7.03627 37.5672 8.54128 37.5672 10.2751C37.5672 12.009 38.0063 13.5489 38.8727 14.9414C39.708 16.2874 40.8348 17.5403 42.2257 18.6613C43.5778 19.7551 45.1125 20.8024 46.791 21.7721C48.4345 22.7224 50.144 23.665 51.8691 24.5688C53.567 25.457 55.2182 26.3647 56.7801 27.2646C58.3187 28.1529 59.7175 29.0954 60.9413 30.069C62.1302 31.0193 63.0899 32.0589 63.7932 33.1644C64.4653 34.2194 64.8072 35.4063 64.8072 36.6825C64.8072 38.3233 64.4614 39.7584 63.7776 40.9454C63.086 42.1439 62.1419 43.1447 60.9646 43.9205C59.7602 44.7156 58.377 45.3169 56.8501 45.7047C55.3037 46.1004 53.6758 46.2982 52.0206 46.2982C49.5768 46.2982 47.2067 45.8366 44.9765 44.9328C42.7464 44.0252 40.998 42.9663 39.778 41.7832L39.2068 41.2285L37.2525 43.6839L37.8703 44.126C39.9295 45.6039 42.1364 46.7404 44.4404 47.4968C46.7444 48.257 49.297 48.6449 52.0245 48.6449C55.9681 48.6449 59.4882 48.1446 62.4916 47.1632C65.5493 46.1625 67.9738 44.6342 69.695 42.621C71.4434 40.5769 72.3292 38.0129 72.3292 35.0029C72.3292 33.0441 71.8552 31.2521 70.9188 29.6772C70.0097 28.1451 68.7897 26.7215 67.2899 25.4493V25.4415Z" fill="#4C4F54"/>
<path d="M110.312 25.4415C108.844 24.1925 107.188 23.0211 105.401 21.9583C103.629 20.9071 101.803 19.8792 99.9655 18.9056C98.3803 18.0678 96.8534 17.2144 95.4236 16.365C94.0016 15.5232 92.7116 14.6505 91.5888 13.7661C90.5009 12.9089 89.6345 11.9857 89.005 11.0199C88.4028 10.0928 88.1075 9.11147 88.1075 8.02926C88.1075 6.71433 88.4378 5.67867 89.1216 4.86798C89.821 4.03791 90.7729 3.40565 91.9462 2.99061C94.8641 1.96659 98.5086 2.19544 102.052 3.41341C104.103 4.11936 105.696 4.94944 106.784 5.87649L107.371 6.37687L109.248 3.88275L108.552 3.47159C104.628 1.16754 100.389 0 95.9442 0C94.8719 0 93.6558 0.0775774 92.3309 0.228853C90.9904 0.384008 89.6384 0.663287 88.3057 1.07057C86.9497 1.48561 85.6831 2.07132 84.5447 2.81606C83.3674 3.58408 82.4078 4.59258 81.689 5.80667C80.9585 7.03627 80.5894 8.54128 80.5894 10.2751C80.5894 12.009 81.0285 13.5489 81.8949 14.9414C82.7302 16.2874 83.857 17.5403 85.2479 18.6613C86.6 19.7551 88.1347 20.8024 89.8132 21.7721C91.4567 22.7224 93.1662 23.665 94.8913 24.5688C96.5892 25.457 98.2405 26.3647 99.8024 27.2646C101.341 28.1529 102.74 29.0954 103.964 30.069C105.152 31.0193 106.112 32.0589 106.815 33.1644C107.488 34.2194 107.829 35.4063 107.829 36.6825C107.829 38.3233 107.484 39.7584 106.8 40.9454C106.108 42.1439 105.164 43.1447 103.987 43.9205C102.782 44.7156 101.399 45.3169 99.8723 45.7047C98.3259 46.1004 96.698 46.2982 95.0428 46.2982C92.599 46.2982 90.2289 45.8366 87.9987 44.9328C85.7686 44.0252 84.0202 42.9663 82.8002 41.7832L82.229 41.2285L80.2747 43.6839L80.8925 44.126C82.9517 45.6039 85.1586 46.7404 87.4626 47.4968C89.7666 48.257 92.3192 48.6449 95.0467 48.6449C98.9903 48.6449 102.51 48.1446 105.514 47.1632C108.572 46.1625 110.996 44.6342 112.717 42.621C114.466 40.5769 115.351 38.0129 115.351 35.0029C115.351 33.0441 114.877 31.2521 113.941 29.6772C113.032 28.1451 111.812 26.7215 110.312 25.4493V25.4415Z" fill="#4C4F54"/>
<path d="M131.806 23.1337H145.595V20.7908H131.806V2.90534H160.285V0.5625H124.731V48.0826H178.628L176.192 45.7397H131.806V23.1337Z" fill="#4C4F54"/>
<path d="M205.856 37.9083L167.022 0.5625H165.107V40.9571H167.454V10.7639L206.287 48.0826H208.203V0.5625H205.856V37.9083Z" fill="#4C4F54"/>
<path d="M233.566 5.25587C236.08 3.32419 238.901 2.34284 241.947 2.34284C245.312 2.34284 248.408 3.26213 251.144 5.07356C253.902 6.90051 256.218 9.49548 258.028 12.7848L258.32 13.3162L260.95 12.4201L260.534 11.6676C258.592 8.14951 255.992 5.31405 252.803 3.2311C249.399 1.08608 245.747 0 241.947 0C237.483 0 233.36 1.10936 229.689 3.28928C226.025 5.46921 223.064 8.42491 220.885 12.0827C218.697 15.7443 217.59 19.8637 217.59 24.3205C217.59 28.7773 218.697 32.9006 220.885 36.5739C223.064 40.2394 226.029 43.199 229.693 45.3673C233.364 47.5395 237.487 48.6411 241.951 48.6411C245.747 48.6411 249.399 47.5627 252.814 45.4332C255.996 43.3541 258.592 40.5187 260.538 37.0006L260.954 36.2481L258.324 35.352L258.032 35.8834C256.222 39.1727 253.906 41.7638 251.147 43.5791C248.412 45.3828 245.316 46.2982 241.951 46.2982C238.901 46.2982 236.08 45.3169 233.57 43.3852C231.021 41.4263 228.954 38.7499 227.427 35.4374C225.893 32.1132 225.116 28.3701 225.116 24.3205C225.116 20.271 225.893 16.5279 227.427 13.2037C228.954 9.89112 231.021 7.21858 233.57 5.25587H233.566Z" fill="#4C4F54"/>
<path d="M277.925 45.7397V23.1337H291.714V20.7908H277.925V2.90534H299.873V0.5625H270.85V48.0826H301V45.7397H277.925Z" fill="#4C4F54"/>
<path d="M184.452 76.1191C182.851 76.1191 181.48 75.836 180.345 75.2735C179.207 74.7111 178.34 73.8306 177.738 72.6359C177.136 71.4412 176.833 69.8974 176.833 68.0084C176.833 65.2505 177.505 63.2102 178.845 61.8837C180.186 60.5571 182.059 59.8938 184.452 59.8938C185.75 59.8938 186.919 60.1149 187.964 60.5571C189.009 60.9993 189.841 61.6664 190.459 62.5547C191.076 63.4468 191.387 64.5756 191.387 65.9487H188.341C188.341 65.1885 188.178 64.5446 187.848 64.017C187.521 63.4895 187.067 63.09 186.484 62.8146C185.905 62.5431 185.241 62.4034 184.495 62.4034C183.457 62.4034 182.595 62.6051 181.907 63.0085C181.219 63.4119 180.714 64.0093 180.384 64.8006C180.058 65.5919 179.891 66.5771 179.891 67.7485V68.2528C179.891 69.4397 180.054 70.4327 180.384 71.224C180.71 72.0153 181.215 72.6087 181.895 73.0044C182.575 73.4 183.442 73.5978 184.495 73.5978C185.287 73.5978 185.983 73.466 186.577 73.1983C187.172 72.9307 187.634 72.535 187.96 72.0114C188.287 71.4877 188.454 70.8439 188.454 70.0797H191.383C191.383 71.449 191.076 72.5816 190.466 73.4737C189.856 74.3659 189.029 75.0253 187.984 75.4597C186.939 75.8941 185.761 76.1114 184.448 76.1114L184.452 76.1191Z" fill="#4C4F54"/>
<path d="M202.736 75.8476V60.1731H205.712V73.2643H213.584V75.8476H202.736Z" fill="#4C4F54"/>
<path d="M224.482 75.8476V60.1731H227.459V75.8476H224.482Z" fill="#4C4F54"/>
<path d="M239.631 75.8476V60.1731H242.468L249.174 69.4281C249.251 69.5212 249.341 69.6453 249.45 69.8043C249.554 69.9634 249.655 70.1185 249.749 70.2737C249.842 70.425 249.9 70.5491 249.931 70.6383H250.044V60.1731H252.904V75.8476H250.087L243.357 66.5228C243.237 66.3405 243.093 66.1155 242.934 65.8479C242.775 65.5802 242.662 65.3941 242.604 65.2893H242.491V75.8437H239.631V75.8476Z" fill="#4C4F54"/>
<path d="M265.08 75.8476V60.1731H268.056V75.8476H265.08Z" fill="#4C4F54"/>
<path d="M287.145 76.1191C285.544 76.1191 284.173 75.836 283.038 75.2735C281.9 74.7111 281.033 73.8306 280.431 72.6359C279.829 71.4412 279.526 69.8974 279.526 68.0084C279.526 65.2505 280.198 63.2102 281.538 61.8837C282.879 60.5571 284.752 59.8938 287.145 59.8938C288.443 59.8938 289.612 60.1149 290.657 60.5571C291.702 60.9993 292.534 61.6664 293.152 62.5547C293.769 63.4468 294.08 64.5756 294.08 65.9487H291.034C291.034 65.1885 290.871 64.5446 290.541 64.017C290.214 63.4895 289.76 63.09 289.177 62.8146C288.598 62.5431 287.934 62.4034 287.188 62.4034C286.15 62.4034 285.288 62.6051 284.6 63.0085C283.912 63.4119 283.407 64.0093 283.077 64.8006C282.751 65.5919 282.584 66.5771 282.584 67.7485V68.2528C282.584 69.4397 282.747 70.4327 283.077 71.224C283.403 72.0153 283.908 72.6087 284.588 73.0044C285.268 73.4 286.135 73.5978 287.188 73.5978C287.98 73.5978 288.676 73.466 289.27 73.1983C289.865 72.9307 290.327 72.535 290.653 72.0114C290.98 71.4877 291.147 70.8439 291.147 70.0797H294.076C294.076 71.449 293.769 72.5816 293.159 73.4737C292.549 74.3659 291.722 75.0253 290.677 75.4597C289.632 75.8941 288.454 76.1114 287.141 76.1114L287.145 76.1191Z" fill="#4C4F54"/>
<path d="M141.006 75.8476V60.1731H143.982V73.2643H151.854V75.8476H141.006Z" fill="#4C4F54"/>
<path d="M82.0581 75.8476V60.1731H85.0343V75.8476H82.0581Z" fill="#4C4F54"/>
<path d="M104.189 76.1191C102.588 76.1191 101.217 75.836 100.082 75.2735C98.9437 74.7111 98.0773 73.8306 97.475 72.6359C96.8728 71.4412 96.5698 69.8974 96.5698 68.0084C96.5698 65.2505 97.2419 63.2102 98.5824 61.8837C99.9228 60.5571 101.796 59.8938 104.189 59.8938C105.487 59.8938 106.656 60.1149 107.701 60.5571C108.746 60.9993 109.578 61.6664 110.196 62.5547C110.813 63.4468 111.124 64.5756 111.124 65.9487H108.078C108.078 65.1885 107.915 64.5446 107.585 64.017C107.258 63.4895 106.804 63.09 106.221 62.8146C105.642 62.5431 104.978 62.4034 104.232 62.4034C103.194 62.4034 102.332 62.6051 101.644 63.0085C100.956 63.4119 100.451 64.0093 100.121 64.8006C99.7946 65.5919 99.6275 66.5771 99.6275 67.7485V68.2528C99.6275 69.4397 99.7907 70.4327 100.121 71.224C100.447 72.0153 100.952 72.6087 101.632 73.0044C102.312 73.4 103.179 73.5978 104.232 73.5978C105.024 73.5978 105.72 73.466 106.314 73.1983C106.909 72.9307 107.371 72.535 107.697 72.0114C108.024 71.4877 108.191 70.8439 108.191 70.0797H111.12C111.12 71.449 110.813 72.5816 110.203 73.4737C109.593 74.3659 108.766 75.0253 107.721 75.4597C106.675 75.8941 105.498 76.1114 104.185 76.1114L104.189 76.1191Z" fill="#4C4F54"/>
<path d="M116.61 75.8476L122.722 60.1731H126.475L132.61 75.8476H129.381L128.122 72.5118H120.935L119.676 75.8476H116.61ZM121.875 69.9944H127.163L125.581 65.747C125.519 65.5958 125.449 65.4018 125.364 65.1652C125.278 64.9286 125.193 64.6687 125.1 64.3894C125.006 64.1063 124.917 63.8231 124.824 63.5322C124.731 63.2452 124.649 62.9853 124.571 62.7564H124.459C124.365 63.0629 124.257 63.412 124.128 63.8076C124 64.2032 123.872 64.5756 123.751 64.9247C123.631 65.2738 123.53 65.5492 123.452 65.747L121.871 69.9944H121.875Z" fill="#4C4F54"/>
<path d="M15.2266 75.4789L10.4749 63.6678L10.5875 66.542V75.9367H8.09705V59.9751H11.4073L16.2951 72.0151L21.1828 59.9751H24.4931V75.9367H22.0026V66.542L22.1153 63.6678L17.3635 75.4789H15.215H15.2266Z" fill="#4C4F54"/>
<path d="M38.7134 68.9316V73.7647H47.3V75.9291H36.0636V59.9675H47.3V62.1319H38.7134V66.8293H46.0217V68.9277H38.7134V68.9316Z" fill="#4C4F54"/>
<path d="M64.8344 59.9712C69.7455 59.9712 72.3254 61.771 72.3254 67.9074C72.3254 74.0437 69.6756 75.9327 64.8111 75.9327H59.1463V59.9712H64.8344ZM61.7961 62.1395V73.7683H64.7878C68.0981 73.7683 69.6289 72.3564 69.6289 67.9074C69.6289 63.4583 68.1681 62.1395 64.8111 62.1395H61.7961Z" fill="#4C4F54"/>
</svg>
