<svg width="8914" height="1537" viewBox="0 0 8914 1537" fill="none" xmlns="http://www.w3.org/2000/svg">
<path d="M8913.7 1536.99C8720.56 1508.05 8495.08 1461.62 8287.15 1336.6C8095.35 1221.29 7926.16 1067.91 7762.55 919.585C7701.74 864.453 7638.85 807.446 7575.92 753.429C7366.21 573.437 7081.66 353.292 6739.85 247.718C6422.15 149.594 6056.68 154.405 5653.58 262.018C5311.68 353.292 4982.26 498.746 4663.7 639.415C4589.06 672.363 4511.91 706.44 4435.89 739.225C4253.18 818.048 4074.03 893.759 3891.12 953.661C3681.97 1022.17 3495.03 1060.58 3319.57 1071.11C3166.93 1080.28 3015.57 1063.65 2869.73 1021.69C2727.65 980.819 2589.92 915.697 2460.33 828.107C2320.99 733.938 2195.2 619.448 2073.56 508.736C1994.39 436.669 1912.51 362.154 1827.62 293.879C1689.31 182.651 1502.54 59.6246 1284.07 95.8487C1093.11 127.506 924.851 255.684 776.406 368.787C763.548 378.588 750.786 388.306 738.105 397.903L737.29 396.815C749.97 387.219 762.733 377.5 775.59 367.7C851.919 309.551 930.845 249.417 1014.98 199.574C1110.36 143.056 1198.31 108.68 1283.85 94.5031C1379.58 78.6269 1475 91.5127 1575.58 133.867C1654.71 167.196 1735.06 217.692 1828.48 292.818C1913.39 361.107 1995.28 435.649 2074.47 507.73C2196.07 618.415 2321.82 732.877 2461.07 826.992C2726.46 1006.35 3015.28 1088.01 3319.48 1069.77C3722.29 1045.6 4117.65 875.042 4435.33 737.988C4511.34 705.203 4588.51 671.127 4663.12 638.178C4981.73 497.495 5311.2 352.014 5653.2 260.713C5843.06 210.026 6025.88 181.74 6196.6 176.656C6388.87 170.92 6571.76 194.395 6740.22 246.427C6887.98 292.071 7033.14 360.632 7183.96 456.038C7307.17 533.978 7431.99 628.147 7576.77 752.41C7639.71 806.44 7702.6 863.448 7763.42 918.593C7926.98 1066.87 8096.11 1220.21 8287.8 1335.45C8495.53 1460.34 8720.85 1506.73 8913.85 1535.65L8913.64 1537L8913.7 1536.99Z" fill="#B48F7A"/>
<path d="M8906.64 1478.82C8784.51 1456.3 8685.68 1431.93 8595.59 1402.11C8487.01 1366.15 8391.11 1322.1 8302.4 1267.4C8123.55 1157.14 7963.06 1014.96 7807.86 877.448C7741.45 818.606 7672.79 757.765 7603.96 700.609C7394.72 526.991 7111.83 316.524 6778.67 229.45C6466.74 147.908 6122.03 173.231 5693.84 309.116C5615.9 333.882 5531.55 363.078 5435.97 398.378C5349 430.661 5261.32 463.609 5176.53 495.456C4928.32 588.701 4693.87 676.781 4454.47 757.956C4319.21 803.654 4173.56 851.812 4025.09 894.425C3759.36 969.551 3536.51 1006.06 3323.71 1009.31C3170.23 1011.8 3016.68 991.421 2867.25 948.714C2723.03 907.487 2581.44 845.152 2446.39 763.434C2344.87 702.063 2252 634.386 2174.53 576.278C2137.65 548.617 2100.68 520.29 2064.91 492.887C1973.97 423.212 1879.93 351.171 1783.37 287.028C1640.6 192.152 1448.79 88.9437 1230.82 133.405C1039.14 172.864 875.269 296.543 716.78 416.144C703.352 426.284 690.005 436.342 676.753 446.278L675.938 445.191C689.19 435.255 702.536 425.183 715.965 415.056C793.775 356.336 874.236 295.605 959.468 244.456C1056.02 186.511 1144.69 149.743 1230.55 132.073C1449 87.5165 1641.14 190.874 1784.13 285.9C1880.72 350.07 1974.79 422.124 2065.74 491.813C2101.5 519.202 2138.47 547.543 2175.34 575.19C2252.78 633.285 2345.63 700.935 2447.1 762.278C2724.66 930.241 3019.61 1012.91 3323.71 1007.96C3536.38 1004.71 3759.13 968.219 4024.74 893.134C4173.18 850.535 4318.8 802.376 4454.05 756.692C4693.43 675.531 4927.86 587.451 5176.06 494.206C5260.86 462.345 5348.55 429.396 5435.52 397.114C5531.11 361.814 5615.49 332.617 5693.45 307.838C5892.48 244.674 6068.82 206.18 6232.52 190.167C6428.97 170.948 6607.73 183.371 6779.03 228.145C6924.23 266.096 7067.35 328.132 7216.57 417.788C7336.97 490.128 7460.36 579.676 7604.85 699.576C7673.7 756.746 7742.36 817.6 7808.79 876.442C7963.95 1013.92 8124.38 1156.05 8303.13 1266.25C8506.87 1391.86 8722.67 1443.52 8906.9 1477.49L8906.66 1478.82H8906.64Z" fill="#B48F7A"/>
<path d="M8899.59 1420.65C8783.47 1394.85 8688.61 1367.95 8601.07 1335.99C8496.67 1297.88 8403.98 1252.79 8317.66 1198.18C8152.36 1093.61 8001.44 962.89 7855.5 836.48C7782.76 773.478 7707.56 708.343 7632.03 647.774C7411.11 470.894 7141.58 280.694 6817.51 211.154C6434.57 128.987 6070.5 232.304 5734.11 356.187C5647.97 387.98 5562.87 421.485 5476.01 455.874C5161.59 581.456 4833.51 686.377 4473.05 776.645C4344.98 808.452 4193.05 845.288 4037.36 877.352C3805.78 925.062 3595.72 948.442 3397.79 948.442C3374.31 948.442 3351.01 948.115 3327.84 947.449C3173.79 943.344 3017.99 919.19 2864.75 875.667C2718.71 834.196 2573.26 774.647 2432.44 698.692C2330.35 643.751 2232.29 582.476 2148.39 529.369C2123.3 513.48 2098.05 497.373 2073.62 481.782C1960.19 409.374 1853.05 340.99 1739.1 280.109C1592.19 201.531 1395.58 118.113 1177.54 170.893C985.183 218.127 818.457 342.798 657.209 463.378C643.182 473.871 629.238 484.296 615.361 494.6L614.545 493.512C628.409 483.209 642.353 472.784 656.38 462.29C735.672 402.999 817.655 341.697 903.947 289.243C1001.63 229.871 1091.02 190.724 1177.19 169.574C1273.16 146.345 1370.09 147.079 1473.52 171.817C1554.92 191.282 1639.5 225.317 1739.7 278.899C1853.67 339.794 1960.84 408.205 2074.3 480.626C2098.73 496.217 2123.98 512.324 2149.06 528.214C2232.94 581.32 2330.98 642.568 2433.02 697.496C2723.89 854.381 3024.94 938.016 3327.81 946.09C3546.07 952.275 3778.07 929.358 4037.02 876.007C4192.7 843.942 4344.6 807.106 4472.65 775.313C4833.06 685.059 5161.07 580.151 5475.44 454.597C5562.32 420.194 5647.43 386.688 5733.57 354.895C5946.53 276.466 6111.41 229.844 6268.16 203.76C6465.74 170.879 6645.5 172.85 6817.71 209.808C6960.37 240.419 7101.41 295.999 7248.9 379.715C7367.15 446.835 7489.13 531.667 7632.8 646.7C7708.36 707.282 7783.57 772.432 7856.31 835.433C8002.23 961.817 8153.11 1092.5 8318.31 1197.01C8519.3 1324.19 8734.66 1382.62 8899.81 1419.3L8899.51 1420.63L8899.59 1420.65Z" fill="#B48F7A"/>
<path d="M8892.54 1362.48C8659.5 1301.1 8486.91 1229.07 8332.92 1128.96C8181.92 1030.84 8041.59 911.959 7905.88 796.993C7825.94 729.275 7743.27 659.246 7660.07 594.94C7441.18 426.174 7174.5 246.426 6856.33 192.858C6473.51 128.416 6126.1 255.615 5774.37 403.257C5729.55 422.124 5683.88 441.697 5639.71 460.631C5599.27 477.962 5557.46 495.877 5516.02 513.384C5354.78 582.203 5186.66 639.387 5002.11 688.198C4847.69 729.044 4680.7 764.085 4491.61 795.348C4330.56 821.541 4185.98 842.786 4049.62 860.307C3792.35 893.378 3557.6 901.656 3331.96 885.644C3032.05 865.024 2724.7 780.356 2418.48 634.018C2325.39 589.666 2235.44 542.228 2148.46 496.339L2110.97 476.576C1969.21 401.871 1835.32 331.298 1694.84 273.244C1534.4 206.831 1341.14 147.187 1124.28 208.449C931.891 262.792 762.977 388.074 599.635 509.225C584.644 520.344 569.136 531.856 554.009 542.989L553.207 541.888C568.334 530.742 583.842 519.243 598.833 508.124C762.284 386.905 931.293 261.541 1123.92 207.13C1219.99 180 1317.66 174.603 1422.51 190.656C1505.22 203.311 1591.92 229.15 1695.37 271.98C1835.91 330.048 1969.82 400.634 2111.61 475.366L2149.1 495.129C2236.07 541.004 2326 588.442 2419.08 632.781C2725.14 779.051 3032.32 863.664 3332.06 884.271C3557.61 900.283 3792.28 892.005 4049.46 858.948C4185.81 841.427 4330.37 820.182 4491.41 793.989C4896.38 727.046 5221.8 637.471 5515.52 512.106C5556.96 494.613 5598.77 476.684 5639.2 459.354C5683.36 440.419 5729.03 420.846 5773.87 401.98C5941.79 331.489 6122.23 260.359 6303.84 217.556C6502.26 170.797 6683.05 162.275 6856.59 191.485C6996.73 215.082 7135.64 264.26 7281.29 341.86C7397.94 404.005 7518.58 484.079 7660.92 593.825C7744.16 658.145 7826.83 728.174 7906.78 795.905C8042.45 910.844 8182.75 1029.7 8333.69 1127.78C8487.55 1227.81 8660.01 1299.78 8892.9 1361.12L8892.56 1362.44L8892.54 1362.48Z" fill="#B48F7A"/>
<path d="M8885.5 1304.32C8665.07 1236.24 8499.35 1160.81 8348.2 1059.75C8212.38 968.993 8083.92 862.428 7959.68 759.383C7871.45 686.2 7780.22 610.517 7688.15 542.119C7471.88 381.931 7208.55 212.989 6895.2 174.59C6501.4 126.336 6152.29 291.064 5814.67 450.356L5795.19 459.571C5717.35 496.407 5636.87 534.507 5556.09 570.908C5180.1 740.407 4799.65 789.884 4510.21 814.052C4372.72 825.103 4226.07 834.672 4061.89 843.262C3807.75 856.569 3570.33 850.208 3336.09 823.825C3182.22 806.889 3021.96 775.218 2859.76 729.696C2712.54 688.389 2559.38 634.426 2404.53 569.331C2339.78 542.214 2275.92 514.2 2214.16 487.11C2175.37 470.092 2135.26 452.503 2096.14 435.676C1932.19 365.13 1793.68 309.347 1650.6 266.38C1496.14 219.88 1290.66 175.528 1071.01 246.019C878.205 307.892 706.763 433.99 540.948 555.943C525.073 567.619 508.655 579.689 492.631 591.406L491.829 590.305C507.839 578.602 524.258 566.531 540.132 554.855C706.029 432.835 877.566 306.669 1070.59 244.741C1166.93 213.832 1265.36 202.359 1371.48 209.686C1455.96 215.517 1544.78 233.133 1650.98 265.103C1794.13 308.082 1932.68 363.88 2096.67 434.452C2135.8 451.28 2175.91 468.882 2214.7 485.887C2276.46 512.977 2340.33 540.991 2405.06 568.094C2729.86 704.632 3043.15 790.224 3336.24 822.493C3570.4 848.876 3807.75 855.237 4061.81 841.93C4225.97 833.326 4372.61 823.77 4510.08 812.72C4799.42 788.566 5179.71 739.102 5555.52 569.685C5636.28 533.284 5716.76 495.198 5794.59 458.362L5814.07 449.146C5974.83 373.299 6157.02 287.34 6339.3 231.665C6434.95 202.441 6523.85 183.303 6611.07 173.122C6708.64 161.731 6801.64 161.786 6895.35 173.258C7033 190.126 7169.77 232.997 7313.47 304.317C7429.04 361.678 7548.35 436.899 7688.95 541.045C7781.06 609.47 7872.3 685.154 7960.55 758.349C8084.76 861.381 8213.2 967.933 8348.96 1058.64C8500.02 1159.62 8665.61 1234.99 8885.9 1303.03L8885.5 1304.34V1304.32Z" fill="#B48F7A"/>
<path d="M8878.43 1246.15C8673.63 1172.61 8509.99 1091.39 8363.45 990.538C8243.93 908.33 8128.88 814.718 8017.62 724.178C7919.79 644.566 7818.64 562.264 7716.19 489.299C7515.54 346.862 7245.3 180.299 6934.02 156.308C6557.67 127.315 6243.89 292.601 5911.64 467.605C5892.76 477.555 5873.85 487.518 5854.9 497.441C5774.21 539.863 5687 585.099 5596.09 628.432C5432.48 706.399 5257.76 760.198 5061.95 792.902C4905.15 819.095 4735.73 831.763 4528.75 832.755C4375.8 833 4223.71 829.575 4076.66 826.272L4074.13 826.217C3828.94 820.712 3582.01 799.1 3340.19 762.006C3185.78 738.749 3027.81 704.306 2857.25 656.718C2711.33 615.995 2558.67 566.26 2390.56 504.645C2362.24 494.314 2333.75 483.834 2306.21 473.694C2224.83 443.75 2147.95 415.464 2069.99 388.822C1886.43 326.066 1743.42 286.185 1606.32 259.516C1449.06 228.784 1240.03 203.76 1017.72 283.575C824.559 352.925 650.644 479.811 482.437 602.511C465.611 614.785 448.227 627.467 431.238 639.782L430.436 638.681C447.412 626.38 464.809 613.684 481.621 601.41C649.896 478.656 823.907 351.715 1017.24 282.284C1114 247.541 1213.16 230.007 1320.41 228.675C1407.13 227.588 1498.05 236.966 1606.57 258.171C1743.72 284.853 1886.78 324.761 2070.42 387.531C2148.39 414.186 2225.28 442.472 2306.66 472.417C2334.21 482.557 2362.68 493.037 2391.01 503.367C2752.25 635.758 3053.93 717.518 3340.37 760.66C3582.13 797.755 3829.01 819.353 4074.14 824.858L4076.67 824.913C4223.73 828.216 4375.77 831.627 4528.72 831.396C4847.56 829.86 5223.63 804.401 5595.48 627.195C5686.37 583.876 5773.55 538.653 5854.23 496.231C5873.18 486.295 5892.09 476.331 5910.96 466.395C6070.69 382.257 6235.85 295.265 6403.69 235.281C6493.95 203.026 6578.18 180.748 6661.18 167.169C6754.2 151.959 6843.46 147.962 6934.07 154.949C7069.29 165.374 7203.89 201.993 7345.55 266.924C7460.44 319.582 7578.44 389.883 7716.92 488.184C7819.4 561.176 7920.57 643.506 8018.42 723.118C8129.66 813.644 8244.69 907.243 8364.16 989.41C8510.6 1090.2 8674.15 1171.37 8878.82 1244.87L8878.36 1246.15H8878.43Z" fill="#B48F7A"/>
<path d="M8871.37 1187.97C8679.6 1108.41 8523.05 1023.69 8378.71 921.311C8276.91 849.162 8177.25 769.36 8080.86 692.195C7971.77 604.863 7858.98 514.568 7744.24 436.438C7486.14 261.352 7233.8 163.73 6972.79 137.972C6627.87 103.937 6333.43 281.496 6048.67 453.211C5998.49 483.468 5946.6 514.758 5895.16 544.471C5792.72 603.789 5712.83 647.408 5636.12 685.888C5470.75 768.857 5292.75 821.012 5091.93 845.343C4933.24 864.562 4760.18 866.493 4547.33 851.391C4426 842.393 4305.39 830.554 4188.76 819.082C4155.06 815.765 4120.23 812.353 4086.4 809.105C3851.39 786.528 3601.72 749.869 3344.32 700.12C3010.3 636.507 2683.12 536.683 2376.62 439.877C2270.26 406.453 2156.95 371.357 2043.87 341.874C1864.91 295.225 1711.82 266.843 1562.08 252.544C1402.79 237.212 1190.92 231.136 964.456 321.037C771.023 397.835 594.702 525.442 424.185 648.862C406.353 661.775 387.909 675.123 369.887 688.077L369.099 686.976C387.121 674.022 405.564 660.661 423.396 647.761C593.982 524.3 770.371 396.639 963.967 319.773C1061.32 281.116 1161.25 257.519 1269.43 247.61C1358.85 239.427 1451.9 240.555 1562.22 251.185C1712.04 265.484 1865.2 293.893 2044.22 340.556C2157.35 370.038 2270.66 405.148 2377.04 438.572C2683.5 535.364 3010.63 635.175 3344.6 698.774C3601.95 748.509 3851.58 785.168 4086.55 807.746C4120.38 810.994 4155.21 814.42 4188.91 817.723C4305.53 829.181 4426.14 841.034 4547.45 850.018C4876.06 873.33 5262.32 871.902 5635.53 684.651C5712.22 646.171 5792.08 602.58 5894.49 543.275C5945.92 513.562 5997.81 482.285 6047.99 452.028C6190.69 365.988 6338.24 277.011 6489.94 215.803C6571.6 182.869 6648.01 160.319 6723.58 146.862C6808.35 131.761 6889.93 128.403 6972.96 136.6C7234.2 162.371 7486.74 260.074 7745.03 435.282C7859.82 513.426 7972.63 603.749 8081.73 691.094C8178.09 768.246 8277.74 848.02 8379.52 920.156C8523.79 1022.47 8680.25 1107.15 8871.92 1186.67L8871.4 1187.92L8871.37 1187.97Z" fill="#B48F7A"/>
<path d="M8864.32 1129.79C8688.64 1045.97 8534.78 955.13 8393.98 852.098C8311.73 791.965 8229.97 727.264 8150.88 664.698C8028.45 567.823 7901.86 467.66 7772.31 383.631C7517.93 219.256 7269.13 132.93 7011.64 119.704C6668.59 102.074 6386.58 291.283 6113.86 474.252C6055.64 513.304 5995.46 553.687 5935.43 591.583C5836.85 653.959 5754.47 702.213 5676.16 743.439C5508.86 831.505 5327.58 882.029 5121.94 897.891C4960.69 910.329 4784.02 901.507 4565.92 870.122C4454.66 853.784 4344.38 834.591 4237.73 816.023C4189.72 807.664 4144.37 799.78 4098.67 792.073C3879.89 755.224 3641.51 706.372 3348.46 638.328C3122.96 586.568 2895.35 522.941 2675.22 461.407C2572.41 432.659 2466.1 402.946 2362.67 375.217C2227.1 339.061 2117.5 313.588 2017.75 295.048C1841.13 262.208 1677.6 246.074 1517.83 245.693C1282.87 244.987 1090.12 280.844 911.191 358.634C717.595 442.799 538.977 571.072 366.244 695.131C347.284 708.751 327.671 722.833 308.521 736.521L307.733 735.42C326.897 721.732 346.496 707.664 365.456 694.044C538.243 569.944 716.916 441.63 910.647 357.411C1008.85 314.716 1109.52 285.057 1218.41 266.721C1309.84 251.334 1407.79 244.008 1517.83 244.361C1677.68 244.742 1841.29 260.89 2017.99 293.743C2117.77 312.283 2227.41 337.769 2363.02 373.939C2466.47 401.682 2572.78 431.395 2675.59 460.143C2895.7 521.677 3123.3 585.303 3348.75 637.05C3641.78 705.095 3880.14 753.946 4098.89 790.782C4144.6 798.476 4189.94 806.373 4237.96 814.732C4344.6 833.286 4454.88 852.479 4566.11 868.817C4903.6 917.37 5299.31 940.314 5675.52 742.284C5753.79 701.085 5836.14 652.845 5934.69 590.482C5994.7 552.6 6054.88 512.216 6113.1 473.178C6249.81 381.456 6391.19 286.621 6538.06 219.093C6617.09 182.746 6691.5 156.92 6765.55 140.12C6848.61 121.267 6929.14 114.172 7011.72 118.413C7144.95 125.25 7278.84 152.571 7409.66 199.601C7529.75 242.785 7652.02 304.332 7773.05 382.543C7902.66 466.613 8029.28 566.804 8151.74 663.692C8230.81 726.258 8312.58 790.945 8394.79 851.065C8535.53 954.042 8689.32 1044.84 8864.92 1128.63L8864.33 1129.85L8864.32 1129.79Z" fill="#B48F7A"/>
<path d="M8857.25 1071.62C8696.26 983.524 8549.72 889.069 8409.23 782.884C8349.1 737.458 8288.51 689.762 8229.91 643.629C8091.39 534.576 7948.16 421.798 7800.36 330.796C7522.86 160.59 7284.61 87.7067 7050.52 101.408C6696.42 122.15 6428.73 314.702 6145.32 518.564C6090.06 558.308 6032.92 599.412 5975.7 638.654C5877.24 706.29 5794.78 757.861 5716.2 800.935C5547.15 894.425 5362.63 943.385 5152.1 950.644C4988.23 956.298 4807.87 936.63 4584.51 888.784C4476.27 865.31 4369.4 838.763 4266.05 813.087C4212.39 799.753 4161.71 787.166 4110.95 775.001C3892.67 722.697 3672.23 663.012 3438.85 599.82C3410.19 592.059 3381.44 584.27 3352.59 576.481C3249.47 548.861 3144.42 519.569 3042.84 491.243C2814.67 427.616 2578.72 361.828 2348.71 310.489C2216.54 281.156 2099.73 260.767 1991.61 248.14C1813.25 227.316 1643.79 224.244 1473.56 238.747C1238.88 258.606 1043.24 308.613 857.899 396.135C664.303 487.545 483.565 616.389 308.779 740.979C288.528 755.414 267.597 770.325 247.129 784.842L246.34 783.741C266.809 769.224 287.74 754.299 307.991 739.878C482.831 615.247 663.623 486.376 857.314 394.912C1042.81 307.322 1238.58 257.274 1473.44 237.402C1643.77 222.885 1813.32 225.957 1991.76 246.794C2099.94 259.422 2216.78 279.824 2349 309.17C2579.05 360.509 2815.01 426.311 3043.19 489.938C3144.77 518.265 3249.81 547.557 3352.93 575.177C3381.77 582.979 3410.53 590.754 3439.19 598.515C3672.56 661.693 3892.99 721.378 4111.24 773.682C4162.01 785.848 4212.69 798.434 4266.35 811.769C4369.69 837.445 4476.55 863.991 4584.77 887.466C4931.27 961.694 5336.56 1009.31 5715.52 799.753C5794.06 756.692 5876.48 705.149 5974.9 637.539C6032.1 598.311 6089.24 557.221 6144.5 517.463C6280.65 419.528 6421.43 318.277 6568.81 241.534C6648.08 200.253 6723.19 168.977 6798.41 145.91C6882.74 120.057 6965.17 105.051 7050.41 100.062C7178.78 92.5457 7306.83 110.855 7441.87 156.05C7554.64 193.783 7672.12 250.573 7801.05 329.654C7948.93 420.697 8092.19 533.488 8230.73 642.568C8289.32 688.702 8349.91 736.398 8410.03 781.811C8550.47 887.955 8696.97 982.369 8857.89 1070.43L8857.24 1071.63L8857.25 1071.62Z" fill="#B48F7A"/>
<path d="M8850.2 1013.44C8708.79 924.831 8565.57 823.974 8424.49 713.67C8390.1 686.798 8355.15 659.124 8321.34 632.36C8163.06 507.036 7999.39 377.459 7828.42 277.975C7557.36 120.79 7322.53 58.8762 7089.36 83.1253C6737.4 119.73 6479.26 323.36 6205.96 538.938C6144.18 587.667 6080.3 638.069 6015.96 685.738C5919.02 757.642 5836.5 812.529 5756.23 858.458C5667.51 909.58 5572.08 947.558 5472.56 971.345C5381.74 993.052 5284.03 1003.74 5182.1 1003.14C5014.92 1002.13 4830.94 971.739 4603.09 907.473C4494.69 876.659 4388.13 842.433 4285.08 809.335C4228.97 791.311 4175.99 774.293 4123.21 757.941C4005.87 721.608 3889.5 684.161 3766.28 644.498C3633.07 601.627 3495.34 557.302 3356.7 514.662C3040.65 418.087 2682.44 308.626 2334.75 245.801C2201.93 221.933 2081.12 207.361 1965.48 201.272C1784.19 191.716 1608.81 201.72 1429.29 231.855C1201.57 269.969 997.238 335.988 804.621 433.691C610.073 533.229 426.141 663.31 248.257 789.109C227.353 803.898 206.517 818.619 185.763 833.244L184.975 832.13C205.729 817.518 226.565 802.783 247.468 787.995C425.393 662.168 609.366 532.074 804.009 432.481C996.749 334.71 1201.22 268.65 1429.08 230.509C1608.69 200.361 1784.17 190.357 1965.56 199.913C2081.26 206.002 2202.12 220.573 2335.01 244.455C2682.78 307.294 3041.03 416.768 3357.13 513.357C3495.76 555.997 3633.51 600.322 3766.72 643.193C3889.92 682.843 4006.31 720.304 4123.63 756.623C4176.42 772.975 4229.41 789.993 4285.51 808.016C4388.55 841.114 4495.09 875.34 4603.47 906.155C4957.8 1006.09 5371.77 1078.44 5755.56 857.262C5835.79 811.347 5918.28 756.501 6015.16 684.623C6079.48 636.981 6143.36 586.58 6205.14 537.851C6336.31 434.371 6471.95 327.37 6615.43 244.333C6692.62 199.668 6766.11 165.129 6840.07 138.773C6923.01 109.209 7004.5 90.5605 7089.23 81.7525C7215.53 68.6221 7341.42 80.9505 7474.07 119.445C7586.85 152.176 7702.99 203.637 7829.12 276.779C8000.18 376.303 8163.89 505.922 8322.2 631.272C8356 658.036 8390.96 685.711 8425.34 712.583C8566.38 822.859 8709.57 923.689 8850.93 1012.27L8850.21 1013.43L8850.2 1013.44Z" fill="#B48F7A"/>
<path d="M5268.48 1056.9C5249.84 1056.9 5231.04 1056.48 5212.09 1055.62C5041.43 1047.97 4853.81 1006.82 4621.67 926.151C4511.43 887.67 4403.61 845.357 4299.35 804.429C4242.48 782.11 4188.77 761.028 4135.49 740.857C4077.76 719 4018.46 696.342 3961.1 674.417C3766.59 600.079 3565.48 523.213 3360.86 452.817C3053.51 347.516 2689.57 232.89 2320.82 181.075C2186.25 162.263 2061.47 153.536 1939.37 154.365C1754.27 155.643 1572.96 178.723 1385.05 224.924C1162.55 279.567 955.268 360.13 751.369 471.222C557.692 577.379 372.482 707.447 193.361 833.246C170.296 849.434 147.313 865.582 124.398 881.608L123.624 880.493C146.539 864.468 169.522 848.32 192.573 832.131C371.721 706.318 556.972 576.224 750.704 470.039C954.697 358.893 1162.09 278.275 1384.72 223.62C1572.72 177.391 1754.14 154.298 1939.34 153.02C2061.51 152.177 2186.36 160.917 2321 179.743C2689.87 231.571 3053.87 346.224 3361.28 451.54C3565.92 521.949 3767.06 598.815 3961.56 673.153C4018.92 695.077 4078.23 717.736 4135.95 739.593C4189.25 759.764 4242.96 780.846 4299.83 803.165C4404.09 844.079 4511.88 886.393 4622.1 924.859C4984.03 1050.65 5406.48 1147.82 5795.53 914.787C5877.11 866.167 5959.66 808.004 6055.34 731.737C6125.18 676.129 6194.13 616.839 6260.79 559.492C6387.86 450.221 6519.25 337.213 6659.67 247.651C6735.24 199.466 6807.49 161.57 6880.56 131.843C6962.5 98.4865 7043.44 76.1267 7127.98 63.4721C7250.67 45.1085 7377.94 51.6873 7506.27 83.0317C7619.06 110.584 7733.83 156.676 7857.13 223.946C8058.98 334.385 8248.47 487.818 8431.72 636.194L8440.61 643.385C8598.43 771.209 8726.58 869.959 8843.93 954.138L8843.14 955.239C8725.77 871.047 8597.6 772.283 8439.75 644.445L8430.86 637.255C8247.66 488.905 8058.21 335.513 7856.48 225.142C7595.84 82.9366 7357.62 30.4829 7128.18 64.8313C6776.95 117.394 6515.01 342.677 6261.69 560.538C6195.01 617.885 6126.06 677.19 6056.2 732.81C5960.48 809.119 5877.87 867.309 5796.24 915.97C5706.4 969.783 5609.47 1008.6 5508.13 1031.37C5432.56 1048.35 5352.15 1056.9 5268.48 1056.9Z" fill="#B48F7A"/>
<path d="M5337.66 1112.1C5306.28 1112.1 5274.41 1110.76 5242.1 1108.11C5067.81 1093.79 4876.58 1041.9 4640.28 944.826C4529.38 899.183 4421.41 849.284 4317.02 801.044C4258.21 773.859 4202.66 748.197 4147.78 723.798L4132.94 717.151C3884.91 605.991 3628.42 491.039 3365 390.998C2954.86 235.567 2618.64 148.303 2306.86 116.374C2171.9 102.604 2039.45 99.6141 1913.23 107.484C1723.66 119.31 1536.4 155.466 1340.77 218.019C1126.87 286.362 916.654 381.469 698.091 508.777C506.425 620.753 321.066 750.059 141.795 875.11C115.455 893.487 89.21 911.797 63.033 929.983L62.2583 928.869C88.4353 910.668 114.694 892.359 141.02 873.996C320.305 748.931 505.691 619.597 697.398 507.595C916.056 380.246 1126.37 285.098 1340.35 216.728C1536.08 154.147 1723.44 117.978 1913.13 106.139C2039.44 98.2549 2171.96 101.245 2307 115.028C2477.42 132.481 2652.63 165.959 2842.65 217.38C3002.74 260.7 3173.76 317.081 3365.47 389.734C3628.95 489.788 3885.45 604.741 4133.49 715.914L4148.32 722.561C4203.2 746.96 4258.75 772.636 4317.58 799.807C4421.97 848.047 4529.91 897.946 4640.79 943.576C4988.58 1086.43 5438.69 1218.81 5835.56 972.324C5918.29 921.067 6000.91 859.588 6095.58 778.861C6169.69 715.683 6242.44 647.843 6312.81 582.245C6436.43 466.98 6564.26 347.787 6702.27 251.497C6776.55 199.669 6847.86 158.348 6920.3 125.155C7001.56 87.9109 7082.19 61.7589 7166.77 45.2167C7396.3 0.293313 7631.29 41.4788 7885.17 171.125C8089.56 275.665 8280.26 426.637 8455.9 574.212C8508.46 618.388 8560.43 662.659 8610.69 705.475C8689.52 772.622 8763.97 836.045 8836.96 896.043L8836.1 897.089C8763.12 837.092 8688.65 773.669 8609.82 706.508C8559.56 663.692 8507.59 619.421 8455.04 575.258C8279.47 427.738 8088.85 276.82 7884.57 172.334C7630.98 42.838 7396.27 1.69334 7167.05 46.5488C6815.61 115.327 6560.48 353.197 6313.76 583.251C6243.38 648.862 6170.61 716.716 6096.49 779.908C6001.77 860.689 5919.09 922.209 5836.31 973.493C5745.34 1030 5646.9 1069.66 5543.74 1091.41C5478.35 1105.19 5409.35 1112.11 5337.69 1112.11L5337.66 1112.1Z" fill="#B48F7A"/>
<path d="M5400.89 1168.3C5303.36 1168.3 5200.16 1154.22 5090.6 1126.14C4823.8 1057.75 4556.49 916.024 4320.65 790.986C4264.8 761.367 4212.05 733.408 4160.02 706.712C3580.73 409.483 2873.72 46.7523 2133.38 46.7523C2051.59 46.7523 1969.54 51.1699 1887.05 60.5896C1214.9 137.401 647.151 530.987 98.0856 911.606C66.4312 933.544 33.7031 956.23 1.65459 978.373L0.879883 977.258C32.9284 955.116 65.6565 932.43 97.3108 910.491C368.364 722.601 648.646 528.309 943.946 372.253C1103.39 288.007 1252.58 222.382 1400.07 171.641C1566.31 114.457 1725.56 77.689 1886.92 59.2575C2078.84 37.3327 2280.39 41.1658 2485.93 70.6481C2671.07 97.2079 2860.63 143.762 3065.47 212.976C3431.77 336.75 3778.17 509.266 4160.66 705.516C4212.69 732.211 4265.44 760.185 4321.3 789.789C4648.53 963.285 5031.46 1166.3 5401.78 1166.3C5564.04 1166.3 5723.84 1127.35 5875.56 1029.86C6055.36 914.311 6211.24 757.562 6361.98 605.977C6482.7 484.582 6607.54 359.041 6743.61 255.847C6816.87 200.294 6887.48 155.425 6959.47 118.698C7040.27 77.4715 7120.76 47.4456 7205.53 26.9208C7478.35 -39.1526 7757.07 16.1147 8057.59 195.876C8317.65 351.443 8552.94 574.932 8760.55 772.106C8784.52 794.873 8807.17 816.39 8829.95 837.894L8829.01 838.886C8806.23 817.382 8783.59 795.865 8759.6 773.098C8392.63 424.53 7946.95 1.28524 7430.07 1.28524C7356.73 1.28524 7282.05 9.79418 7205.86 28.2393C6853.57 113.56 6604.15 364.383 6362.95 606.929C6212.15 758.567 6056.23 915.371 5876.29 1030.99C5733.61 1122.68 5576.44 1168.3 5400.89 1168.3Z" fill="#B48F7A"/>
</svg>
