<svg width="3524" height="1538" viewBox="0 0 3524 1538" fill="none" xmlns="http://www.w3.org/2000/svg">
<path d="M40.9698 255.126L39.0098 253.116C135.98 158.576 259.34 83.8355 395.75 36.9855C485.5 6.15555 616.74 -27.4845 719.86 35.9955C746.23 52.2255 769.78 72.9655 792.55 93.0155C827.42 123.716 863.47 155.466 909.81 170.816C1013.9 205.286 1135.59 166.116 1242.96 131.556C1256.94 127.056 1270.14 122.806 1283.16 118.766C1315.55 108.726 1348.61 97.7655 1380.59 87.1855C1484 52.9355 1590.93 17.5255 1699.6 4.00555C1822.28 -11.2645 1936.1 41.9855 2046.16 93.4755L2061.92 100.846C2082.37 110.386 2102.8 120.426 2124.43 131.056C2222.25 179.146 2323.4 228.876 2427.88 232.266C2528.22 235.516 2603.66 174.236 2676.62 114.966C2683.98 108.986 2691.32 103.026 2698.67 97.1355C2811.93 6.43555 2914.2 -16.3345 3040.65 21.0055C3096.86 37.6055 3151.48 61.1355 3204.31 83.8955C3295.21 123.056 3389.2 163.556 3492.42 168.696L3492.28 171.496C3388.55 166.326 3294.32 125.726 3203.2 86.4655C3150.45 63.7355 3095.91 40.2355 3039.86 23.6855C2914.4 -13.3645 2812.89 9.25555 2700.43 99.3155C2693.08 105.196 2685.75 111.156 2678.39 117.136C2606.92 175.196 2533.07 235.176 2435.57 235.186C2432.99 235.186 2430.41 235.146 2427.8 235.056C2322.72 231.636 2221.29 181.776 2123.2 133.556C2101.58 122.926 2081.17 112.896 2060.74 103.366L2044.98 95.9955C1935.28 44.6755 1821.85 -8.38445 1699.96 6.77555C1591.57 20.2655 1484.77 55.6355 1381.48 89.8355C1349.49 100.426 1316.41 111.386 1284 121.436C1271 125.466 1257.8 129.716 1243.83 134.216C1136.06 168.906 1013.9 208.226 908.94 173.476C862.06 157.956 825.79 126.016 790.71 95.1255C768.02 75.1455 744.56 54.4955 718.4 38.3855C616.29 -24.4645 485.88 8.99555 396.67 39.6355C260.64 86.3555 137.65 160.866 40.9698 255.126Z" fill="#F1E9D3"/>
<path d="M39.2598 285.106L37.2598 283.156C132.58 185.306 250.42 108.286 378.02 60.4256C514.44 9.25557 616.08 7.94558 697.91 56.2956C727.05 73.5156 753.19 95.6956 778.47 117.146C816.81 149.676 856.46 183.316 906.73 199.386C1010.15 232.446 1128.98 193.206 1233.81 158.596C1249.07 153.556 1263.47 148.796 1277.7 144.306C1309.67 134.206 1342.34 123.186 1373.94 112.526C1475.24 78.3556 1579.99 43.0256 1686.32 29.0556C1808.5 13.0056 1921.22 66.2756 2030.21 117.806L2037.18 121.096C2056.25 130.106 2075.22 139.496 2095.3 149.436C2194.05 198.316 2296.16 248.866 2402.9 249.786C2503.76 250.606 2587.49 193.586 2668.6 138.396C2676.35 133.126 2684.06 127.876 2691.75 122.706C2829.74 29.9156 2937.48 7.41557 3063.65 45.0456C3124.7 63.2556 3183.28 90.1456 3239.93 116.156C3319.71 152.786 3402.22 190.666 3492.11 204.276L3491.69 207.046C3401.41 193.376 3318.72 155.416 3238.76 118.696C3182.19 92.7256 3123.71 65.8656 3062.85 47.7256C2937.58 10.3656 2830.52 32.7656 2693.31 125.036C2685.63 130.206 2677.92 135.446 2670.17 140.716C2589.32 195.726 2505.74 252.606 2405.17 252.606C2404.4 252.606 2403.64 252.606 2402.87 252.596C2295.49 251.676 2193.09 200.976 2094.06 151.956C2073.99 142.026 2055.04 132.636 2035.99 123.636L2029.02 120.336C1920.39 68.9856 1808.07 15.8856 1686.69 31.8356C1580.63 45.7656 1476.01 81.0556 1374.84 115.176C1343.23 125.836 1310.54 136.866 1278.55 146.976C1264.34 151.466 1249.94 156.226 1234.69 161.256C1129.45 196.006 1010.18 235.396 905.88 202.056C855.08 185.816 815.21 151.996 776.66 119.286C751.47 97.9156 725.42 75.8056 696.48 58.7056C615.44 10.8256 514.56 12.2056 379 63.0456C251.77 110.766 134.29 187.556 39.2498 285.106H39.2598Z" fill="#F1E9D3"/>
<path d="M34.9602 312.106L32.9302 310.186C74.2002 266.566 185.93 157.976 331.64 91.8258C394.91 63.1058 455.37 46.9858 511.33 43.9258C575.04 40.4358 633.09 53.9358 683.93 84.0358C712.68 101.056 739.1 122.296 764.66 142.836C806.71 176.626 850.19 211.576 904.41 227.686C1007.5 258.306 1125.63 219.476 1229.85 185.206C1245.1 180.196 1259.51 175.456 1273.73 170.976C1303.82 161.506 1334.52 151.286 1364.22 141.396C1464.89 107.886 1568.99 73.2458 1674.79 58.6258C1796.52 41.8058 1907.12 94.5758 2014.07 145.606C2031.36 153.856 2049.23 162.716 2066.52 171.286C2162.03 218.646 2260.8 267.626 2365.59 270.246C2472.94 272.976 2567.39 217.356 2658.77 163.606C2670.86 156.496 2683.37 149.136 2695.56 142.136C2808.96 76.9758 2934.7 23.1658 3085.65 70.1858C3152.96 91.1558 3216.55 123.456 3278.04 154.706C3345.85 189.156 3415.96 224.776 3491.19 245.226L3490.46 247.926C3414.95 227.406 3344.71 191.716 3276.77 157.206C3215.38 126.016 3151.9 93.7658 3084.81 72.8658C2934.89 26.1658 2809.8 79.7258 2696.95 144.566C2684.77 151.566 2672.27 158.916 2660.18 166.026C2570.61 218.706 2478.05 273.136 2373.07 273.146C2370.55 273.146 2368.04 273.116 2365.51 273.056C2260.1 270.426 2161.05 221.306 2065.27 173.806C2047.99 165.236 2030.13 156.376 2012.86 148.136C1906.28 97.2858 1796.07 44.7058 1675.17 61.4058C1569.63 75.9958 1465.65 110.596 1365.1 144.066C1335.4 153.956 1304.68 164.176 1274.57 173.656C1260.36 178.126 1245.97 182.866 1230.72 187.876C1126.11 222.276 1007.55 261.266 903.61 230.376C848.86 214.106 805.16 178.986 762.9 145.026C737.42 124.546 711.07 103.366 682.5 86.4558C588.18 30.6158 467.25 33.3558 332.8 94.3958C187.54 160.306 76.1202 268.606 34.9602 312.106Z" fill="#F1E9D3"/>
<path d="M28.8999 337.095L26.8599 335.185C78.6799 279.865 185.59 177.945 319.39 116.935C451.06 56.8955 568.11 55.0655 667.27 111.505C696.6 128.195 724.11 148.745 750.71 168.605C795.64 202.165 842.1 236.855 898.05 253.265C1001.29 283.535 1117.05 247.005 1219.18 214.765C1232.94 210.425 1245.93 206.325 1258.92 202.365C1291.07 192.575 1323.87 181.925 1355.6 171.625C1456.52 138.865 1560.88 104.985 1666.8 90.9155C1790.77 74.4455 1904.1 129.715 2004.09 178.475C2017.15 184.845 2030.59 191.555 2043.58 198.035C2136.95 244.635 2233.5 292.825 2337.25 294.075C2447.45 295.405 2548.79 242.225 2646.76 190.785C2661.75 182.915 2677.26 174.775 2692.31 167.105C2817.87 103.135 2953.46 45.0555 3108.94 97.2555C3183.19 122.185 3251.98 162.065 3318.5 200.635C3373.43 232.485 3430.23 265.405 3489.81 289.755L3488.75 292.345C3429 267.925 3372.11 234.955 3317.1 203.055C3250.7 164.555 3182.03 124.745 3108.05 99.9155C2953.6 48.0555 2818.61 105.905 2693.58 169.605C2678.54 177.265 2663.04 185.405 2648.06 193.275C2551 244.235 2450.65 296.905 2341.31 296.915C2339.94 296.915 2338.58 296.915 2337.21 296.895C2232.82 295.635 2135.98 247.295 2042.32 200.565C2029.33 194.085 2015.9 187.385 2002.85 181.015C1903.21 132.435 1790.28 77.3655 1667.16 93.7155C1561.49 107.745 1457.26 141.585 1356.45 174.305C1324.72 184.605 1291.91 195.255 1259.73 205.065C1246.76 209.015 1233.77 213.115 1220.02 217.455C1117.51 249.815 1001.32 286.485 897.26 255.965C840.82 239.415 794.15 204.565 749.03 170.865C722.5 151.045 695.06 130.555 665.88 113.955C567.54 57.9855 451.35 59.8455 320.55 119.495C187.18 180.285 80.5699 281.925 28.8999 337.095Z" fill="#F1E9D3"/>
<path d="M21.9301 361.066L19.8901 359.146C83.2501 291.976 183.86 200.266 303.31 144.816C428.42 86.746 542.92 83.316 643.66 134.616C677.44 151.816 709.15 173.936 739.81 195.326C787.22 228.396 836.25 262.596 893.66 278.946C999.75 309.156 1119.34 272.876 1224.85 240.866C1238.04 236.866 1251.02 232.926 1263.72 229.196C1294.41 220.176 1325.72 210.386 1356.01 200.916C1455.52 169.796 1558.42 137.626 1662.63 125.186C1778.96 111.306 1880.97 156.076 1983.88 207.246C1995.52 213.036 2007.22 218.956 2018.98 224.916C2111.07 271.576 2206.3 319.836 2310.42 319.836H2310.84C2423.74 319.696 2530.31 268.746 2633.37 219.466C2651.49 210.806 2670.23 201.846 2688.38 193.486C2809.72 137.616 2960.74 68.076 3118.06 121.216C3205.13 150.626 3283.07 203.126 3358.44 253.896C3400.45 282.196 3443.88 311.456 3488.18 336.186L3486.81 338.626C3442.41 313.836 3398.92 284.546 3356.87 256.216C3281.65 205.546 3203.87 153.146 3117.16 123.866C2960.9 71.086 2810.44 140.366 2689.55 196.026C2671.41 204.376 2652.69 213.326 2634.58 221.986C2531.24 271.396 2424.38 322.486 2310.84 322.626C2205.81 322.786 2110.22 274.286 2017.71 227.406C2005.96 221.446 1994.27 215.526 1982.63 209.746C1880.11 158.776 1778.52 114.156 1662.95 127.956C1558.99 140.366 1456.22 172.506 1356.83 203.586C1326.53 213.056 1295.2 222.856 1264.49 231.876C1251.8 235.606 1238.83 239.536 1225.64 243.536C1119.76 275.656 999.76 312.066 892.88 281.626C835.02 265.156 785.8 230.816 738.2 197.606C707.62 176.276 676 154.216 642.38 137.096C542.45 86.206 428.77 89.646 304.49 147.346C185.44 202.606 85.1201 294.056 21.9301 361.056V361.066Z" fill="#F1E9D3"/>
<path d="M3484.88 385.006C3453.63 362.666 3422.36 338.016 3392.11 314.176C3312.9 251.736 3230.98 187.176 3136.13 152.456C2983.48 96.5756 2834.99 159.756 2691.39 220.856L2684.84 223.646C2663.89 232.556 2643.12 241.806 2621.12 251.596C2512.1 300.136 2399.44 350.286 2282.69 350.296C2279.84 350.296 2277.01 350.266 2274.16 350.206C2175.48 348.116 2086.82 302.136 2001.09 257.666C1989.63 251.726 1978.22 245.806 1966.83 240.016C1880.78 196.266 1779.27 150.626 1663.44 163.056C1558.67 174.296 1454.69 205.296 1354.13 235.266C1322.08 244.826 1288.95 254.696 1256.49 263.716C1245.62 266.736 1234.6 269.866 1223.45 273.036C1118.45 302.876 999.44 336.706 891.7 306.876C832.56 290.506 781.25 256.946 731.64 224.496C700.05 203.836 667.39 182.466 633 165.726C404.28 54.3957 170.63 223.506 14.8901 384.976L12.8701 383.036C107.88 284.516 202.82 213.226 295.05 171.126C416.76 115.576 530.87 112.906 634.21 163.216C668.76 180.036 701.5 201.446 733.16 222.156C782.59 254.496 833.71 287.926 892.43 304.186C999.43 333.806 1118.03 300.096 1222.67 270.346C1233.82 267.176 1244.85 264.036 1255.72 261.026C1288.16 252.016 1321.28 242.136 1353.31 232.586C1453.99 202.566 1558.09 171.536 1663.12 160.276C1779.72 147.776 1881.67 193.596 1968.08 237.526C1979.47 243.316 1990.89 249.246 2002.36 255.186C2087.81 299.506 2176.17 345.336 2274.2 347.406C2393.37 349.986 2508.56 298.636 2619.95 249.046C2641.96 239.246 2662.74 229.996 2683.71 221.076L2690.26 218.286C2834.36 156.976 2983.36 93.5757 3137.06 149.826C3232.34 184.696 3314.42 249.406 3393.81 311.976C3424.03 335.796 3455.29 360.436 3486.48 382.726L3484.85 385.006H3484.88Z" fill="#F1E9D3"/>
<path d="M3483.19 429.756C3461.77 411.126 3439.98 391.116 3418.89 371.756C3334.86 294.616 3247.96 214.856 3141.23 177.326C2996.93 126.596 2853.29 183.556 2714.38 238.636L2697.18 245.446C2670.09 256.156 2643.04 267.596 2614.41 279.716C2498.67 328.706 2379.03 379.346 2257.49 379.346C2256.01 379.346 2254.54 379.346 2253.06 379.326C2155.25 378.326 2069.03 331.736 1985.64 286.666C1979.18 283.176 1972.73 279.686 1966.28 276.226C1864.98 221.856 1775.75 187.726 1669.48 197.866C1565.35 207.816 1461.72 237.066 1361.51 265.356C1331.07 273.946 1299.59 282.836 1268.76 290.976C1257.45 293.966 1245.98 297.066 1234.37 300.206C1126.5 329.396 1004.24 362.486 894.03 332.566C833.94 316.256 780.83 283.186 729.46 251.196C697.39 231.226 664.22 210.576 629.72 194.236C444.3 106.446 241.14 176.946 8.64016 409.806L6.66016 407.826C107.26 307.066 200.17 238.326 290.68 197.676C410.83 143.706 525.32 141.706 630.95 191.726C665.6 208.136 698.84 228.826 730.97 248.836C782.16 280.716 835.1 313.676 894.79 329.876C1004.27 359.586 1126.14 326.616 1233.66 297.516C1245.27 294.376 1256.75 291.266 1268.06 288.276C1298.86 280.136 1330.33 271.256 1360.76 262.666C1461.09 234.346 1564.84 205.066 1669.23 195.086C1776.19 184.856 1865.87 219.146 1967.62 273.766C1974.07 277.226 1980.52 280.716 1986.99 284.206C2070.07 329.106 2155.98 375.536 2253.1 376.526C2375.68 377.866 2496.44 326.616 2613.32 277.136C2641.97 265.016 2669.02 253.556 2696.15 242.846L2713.35 236.036C2846.25 183.336 2996.87 123.616 3142.16 174.686C3249.43 212.396 3336.54 292.356 3420.78 369.686C3441.85 389.026 3463.63 409.026 3485.02 427.636L3483.18 429.746L3483.19 429.756Z" fill="#F1E9D3"/>
<path d="M3481.94 471.146C3467.45 456.456 3452.61 440.976 3438.27 426.006C3354.88 339.016 3268.64 249.066 3156.72 207.606C3011.18 153.696 2855.42 213.146 2718.01 265.586C2705.83 270.236 2693.77 274.836 2681.82 279.326C2653.88 289.816 2625.81 301.166 2596.1 313.186C2479.61 360.286 2359.22 408.956 2239.07 408.966C2236.62 408.966 2234.19 408.946 2231.75 408.906C2137.18 407.326 2056.2 360.956 1977.89 316.106C1971.74 312.586 1965.59 309.056 1959.43 305.556C1881.54 261.256 1794.09 221.576 1682.53 231.156C1577.33 240.186 1472.44 268.396 1371 295.676C1339.03 304.276 1305.98 313.166 1273.6 321.256C1262.37 324.066 1250.99 326.976 1239.47 329.926C1133.52 357.066 1013.43 387.826 905.47 359.566C843.58 343.366 788.73 310.106 735.67 277.926C701.93 257.466 667.04 236.306 630.69 219.746C389.93 110.116 169.32 278.006 4.02984 436.526L2.08984 434.506C69.6898 369.676 173.02 277.426 289.29 225.026C409.27 170.966 524.52 168.336 631.85 217.216C668.35 233.836 703.31 255.046 737.12 275.546C790 307.616 844.68 340.776 906.17 356.876C1013.43 384.946 1133.15 354.286 1238.77 327.236C1250.3 324.286 1261.69 321.366 1272.92 318.556C1305.27 310.466 1338.31 301.586 1370.27 292.986C1471.83 265.676 1576.85 237.426 1682.29 228.376C1794.6 218.726 1882.53 258.606 1960.81 303.126C1966.97 306.626 1973.12 310.146 1979.28 313.676C2057.28 358.346 2137.94 404.546 2231.79 406.106C2353.7 408.166 2476.44 358.546 2595.04 310.596C2624.77 298.576 2652.86 287.216 2680.83 276.716C2692.77 272.236 2704.83 267.626 2717 262.986C2854.87 210.366 3011.14 150.716 3157.68 204.996C3270.21 246.676 3356.67 336.866 3440.28 424.076C3454.62 439.036 3469.45 454.506 3483.93 469.186L3481.93 471.156L3481.94 471.146Z" fill="#F1E9D3"/>
<path d="M3481.35 507.446C3471.48 496.246 3461.57 484.826 3451.56 473.286C3366.37 375.116 3278.27 273.596 3155.61 233.566C3012.27 186.786 2858.13 243.446 2722.14 293.446C2706.8 299.086 2690.94 304.916 2675.66 310.386C2645.89 321.046 2615.89 332.696 2584.14 345.026C2464.72 391.406 2341.1 439.386 2219.46 438.466C2126.43 437.776 2049.86 389.886 1975.81 343.576C1970.95 340.536 1966.09 337.496 1961.22 334.466C1867.96 276.436 1790.55 254.786 1702.41 262.106C1596.82 270.866 1491.36 298.076 1389.37 324.396C1358.73 332.306 1327.05 340.476 1296.01 347.976C1282.84 351.156 1269.44 354.506 1255.86 357.896C1148.23 384.796 1026.23 415.286 917.74 385.696C855.84 368.816 800.61 335.286 747.2 302.876C714.36 282.936 680.4 262.326 645.26 245.816C411.11 135.796 188.63 295.436 1.89 466.106L0 464.036C84.11 387.166 185.07 301.756 296.06 251.156C421.44 193.996 536.06 191.426 646.46 243.296C681.73 259.866 715.76 280.526 748.66 300.496C801.9 332.816 856.96 366.236 918.48 383.016C1026.28 412.416 1147.89 382.016 1255.19 355.206C1268.78 351.806 1282.19 348.456 1295.36 345.276C1326.37 337.786 1358.05 329.616 1388.67 321.716C1490.77 295.376 1596.35 268.136 1702.18 259.356C1790.99 251.966 1868.89 273.746 1962.7 332.126C1967.57 335.156 1972.43 338.196 1977.29 341.236C2051.01 387.346 2127.24 435.016 2219.48 435.696C2340.72 436.616 2463.95 388.726 2583.12 342.446C2614.89 330.106 2644.9 318.446 2674.71 307.776C2689.99 302.306 2705.13 296.736 2721.17 290.836C2857.59 240.686 3012.21 183.826 3156.48 230.926C3279.87 271.206 3368.23 373.016 3453.67 471.476C3463.68 483.006 3473.59 494.426 3483.45 505.616L3481.35 507.466V507.446Z" fill="#F1E9D3"/>
<path d="M3481.62 537.265C3474.27 528.895 3466.89 520.415 3459.45 511.865C3375.23 415.135 3279.77 305.495 3152.43 264.575C3006.84 217.785 2850.37 274.525 2712.31 324.575C2697.89 329.805 2683.62 334.975 2669.54 339.965C2640.21 350.375 2610.7 361.695 2579.46 373.685C2458.38 420.135 2333.19 468.175 2209.57 466.085C2119.29 464.565 2051.74 417.825 1980.22 368.345L1969.27 360.775C1883.6 301.705 1810.3 279.895 1724.12 287.885C1618.07 297.695 1512.42 326.425 1410.23 354.215C1379.67 362.525 1348.07 371.115 1317.11 379.015C1303.45 382.505 1289.79 386.125 1275.33 389.955C1167.8 418.465 1045.93 450.775 938.42 418.565C875.8 399.805 820.33 364.125 766.69 329.625C733.79 308.465 699.76 286.585 664.49 268.865C405.62 138.915 143.66 371.045 2.92982 495.755L1.06982 493.665C95.1198 410.325 197.26 326.165 306.94 275.065C438.21 213.905 555.57 211.065 665.74 266.385C701.15 284.165 735.23 306.085 768.2 327.295C821.68 361.695 876.98 397.265 939.22 415.905C1045.98 447.895 1167.44 415.685 1274.61 387.275C1289.08 383.435 1302.74 379.815 1316.42 376.325C1347.36 368.435 1378.95 359.835 1409.5 351.535C1511.79 323.725 1617.57 294.955 1723.86 285.125C1810.74 277.085 1884.61 299.025 1970.86 358.505L1981.82 366.075C2052.98 415.315 2120.19 461.815 2209.62 463.325C2332.64 465.435 2457.63 417.465 2578.46 371.105C2609.72 359.115 2639.24 347.785 2668.61 337.365C2682.69 332.375 2696.94 327.205 2711.36 321.975C2849.84 271.775 3006.8 214.865 3153.29 261.945C3281.37 303.105 3377.1 413.045 3461.57 510.055C3469.01 518.595 3476.39 527.075 3483.73 535.445L3481.62 537.295V537.265Z" fill="#F1E9D3"/>
<path d="M3482.61 561.396L3470.21 547.746C3379.42 447.696 3276.5 334.316 3141.35 293.186C2994.04 248.366 2837.78 305.016 2699.92 354.996C2690.4 358.446 2680.95 361.876 2671.57 365.246C2641.69 375.976 2611.71 387.636 2579.96 399.976C2460.11 446.566 2336.25 494.716 2213.07 494.726C2210.75 494.726 2208.44 494.706 2206.12 494.676C2116.13 493.346 2052.21 444.436 1984.54 392.646L1979.44 388.746C1900.24 328.196 1830.13 306.006 1745 314.536C1638.5 325.216 1532.74 355.586 1430.46 384.936C1399.43 393.846 1367.34 403.056 1335.89 411.516C1322.5 415.116 1309.07 418.876 1294.85 422.856C1190.17 452.126 1071.51 485.306 967.21 454.176C901.62 434.596 844.42 395.946 789.1 358.576C754.17 334.976 718.05 310.576 680.23 291.266C449.06 173.226 211.37 347.346 6.73018 519.806L4.93018 517.666C96.4802 440.516 203.76 353.746 318.45 300.526C454.54 237.376 573.3 233.536 681.52 288.786C719.49 308.176 755.68 332.626 790.68 356.276C845.82 393.536 902.84 432.056 968.02 451.516C1071.56 482.426 1189.79 449.366 1294.11 420.186C1308.33 416.206 1321.77 412.446 1335.17 408.846C1366.59 400.386 1398.67 391.186 1429.69 382.276C1532.09 352.886 1637.97 322.486 1744.72 311.776C1830.61 303.176 1901.32 325.526 1981.14 386.546L1986.24 390.446C2053.53 441.936 2117.1 490.576 2206.16 491.896C2331.12 493.716 2457.09 444.766 2578.94 397.386C2610.71 385.036 2640.71 373.366 2670.62 362.626C2680 359.256 2689.45 355.836 2698.96 352.376C2837.23 302.246 2993.95 245.426 3142.15 290.516C3278.05 331.866 3381.23 445.556 3472.28 545.866L3484.67 559.506L3482.6 561.396H3482.61Z" fill="#F1E9D3"/>
<path d="M3484.11 581.556C3387.28 480.676 3277.54 366.326 3137.31 322.866C2981 274.416 2817.61 335.536 2673.45 389.466C2666.72 391.986 2660.01 394.496 2653.34 396.976C2625.75 407.256 2597.96 418.406 2568.53 430.216C2446.61 479.136 2320.51 529.756 2195.54 524.116C2111.08 520.316 2053.94 471.856 1993.44 420.546L1990.53 418.076C1917.52 356.176 1850.24 333.536 1765.56 342.306C1658.96 353.366 1553.33 385.176 1451.18 415.936C1419.52 425.466 1386.77 435.326 1354.7 444.346C1342.21 447.856 1329.43 451.576 1316.43 455.356C1210.87 486.066 1091.22 520.866 986.39 486.716C922.53 465.906 866.9 427.056 813.1 389.476C779.19 365.786 744.12 341.296 707.4 321.636C458.43 188.346 179.26 408.376 12.4497 539.836L10.7197 537.636C111.57 458.146 219.88 376.246 337.59 324.936C479.23 263.186 600.62 261.306 708.7 319.176C745.56 338.916 780.7 363.456 814.68 387.186C868.31 424.646 923.77 463.376 987.23 484.056C1091.24 517.956 1210.45 483.276 1315.62 452.676C1328.63 448.896 1341.41 445.176 1353.92 441.656C1385.97 432.646 1418.7 422.786 1450.35 413.256C1552.63 382.456 1658.39 350.616 1765.25 339.526C1850.77 330.646 1918.68 353.506 1992.32 415.936L1995.24 418.406C2055.36 469.396 2112.16 517.556 2195.66 521.316C2320.03 526.926 2445.84 476.436 2567.49 427.616C2596.94 415.796 2624.75 404.646 2652.37 394.346C2659.04 391.856 2665.75 389.356 2672.48 386.836C2817.06 332.746 2980.92 271.456 3138.15 320.186C3279.07 363.866 3389.08 478.486 3486.14 579.616L3484.12 581.556H3484.11Z" fill="#F1E9D3"/>
<path d="M3485.88 599.486C3372.34 488.696 3258.65 386.006 3116.58 346.916C2956.26 302.786 2800.38 363.716 2649.63 422.636L2644.76 424.536C2618.63 434.746 2592.48 445.656 2564.78 457.216C2447.28 506.246 2325.82 556.876 2203.26 554.786C2114.54 553.216 2057.89 500.486 2003.11 449.486C1933.71 384.886 1870.28 362.266 1784.14 371.426C1678.98 382.606 1574.95 415.156 1474.34 446.636C1445.01 455.806 1414.68 465.296 1385 474.036C1372.26 477.786 1359.47 481.686 1345.92 485.806C1238.88 518.406 1117.56 555.346 1011.45 521.046C945.96 499.876 889.14 459.496 834.2 420.446C799.9 396.076 764.43 370.866 727.3 350.676C483.68 218.206 192.96 430.676 19.2599 557.626L17.6099 555.366C191.84 428.026 483.46 214.916 728.65 348.216C765.93 368.486 801.46 393.736 835.83 418.166C890.6 457.086 947.25 497.346 1012.32 518.386C1117.6 552.426 1238.47 515.616 1345.11 483.136C1358.66 479.006 1371.47 475.106 1384.22 471.356C1413.88 462.626 1444.2 453.146 1473.52 443.966C1574.26 412.446 1678.42 379.856 1783.86 368.646C1870.89 359.386 1934.97 382.226 2005.03 447.436C2059.43 498.076 2115.68 550.436 2203.32 551.986C2325.19 554.086 2446.47 503.546 2563.71 454.626C2591.42 443.066 2617.59 432.146 2643.75 421.916L2648.62 420.016C2799.79 360.936 2956.11 299.846 3117.33 344.206C3260.05 383.486 3374.03 486.416 3487.85 597.476L3485.89 599.476L3485.88 599.486Z" fill="#F1E9D3"/>
<path d="M3487.72 616.936C3378.55 517.656 3249.23 408.566 3095.67 370.576C2942.1 332.586 2800.2 383.306 2643.88 448.316C2617.4 459.326 2590.75 471.246 2562.54 483.866C2444.76 536.556 2323 590.976 2199.85 586.026C2116.59 582.636 2067.28 533.286 2015.07 481.046C1949.39 415.316 1887.28 392.316 1800.73 401.686C1695.65 413.056 1592.01 446.736 1491.79 479.316C1462.24 488.916 1431.69 498.846 1401.79 507.976C1390.65 511.376 1379.28 514.936 1367.71 518.556C1259.52 552.416 1136.9 590.796 1029.31 554.296C965.04 532.486 908.97 492.196 854.75 453.236C821.4 429.266 786.91 404.486 751 384.396C508 248.486 206.46 452.816 26.3 574.906L24.73 572.586C205.43 450.136 507.86 245.196 752.37 381.966C788.41 402.126 822.97 426.956 856.39 450.966C910.44 489.806 966.34 529.966 1030.21 551.646C1136.93 587.856 1259.1 549.626 1366.88 515.886C1378.46 512.266 1389.84 508.706 1400.98 505.306C1430.86 496.196 1461.4 486.266 1490.93 476.666C1591.29 444.046 1695.07 410.316 1800.44 398.916C1887.94 389.446 1950.71 412.676 2017.06 479.076C2068.87 530.916 2117.8 579.886 2199.97 583.236C2322.43 588.266 2443.93 533.876 2561.41 481.316C2589.64 468.686 2616.3 456.766 2642.82 445.736C2799.61 380.526 2941.96 329.666 3096.36 367.866C3250.55 406.006 3380.2 515.366 3489.62 614.866L3487.74 616.936H3487.72Z" fill="#F1E9D3"/>
<path d="M3489.41 635.626C3369.99 534.196 3238.09 434.966 3082.82 396.066C2919.5 355.146 2775.94 410.946 2618.56 482.356C2596.71 492.276 2574.77 502.806 2551.54 513.956C2444.91 565.136 2324.03 623.206 2205.2 617.756C2123.79 614.056 2077.55 565.796 2024.01 509.906L2022.95 508.796C1962.68 445.896 1900.21 423.116 1814.05 432.676C1709.32 444.286 1606.33 479.206 1506.73 512.966C1476 523.386 1444.22 534.156 1413.12 543.976C1403.97 546.866 1394.67 549.856 1385.24 552.886C1278.91 587.056 1158.38 625.796 1051.33 590.106C985.14 568.036 927.65 526.686 872.06 486.706C837.22 461.646 801.19 435.736 763.5 414.936C658.83 357.206 534.81 354.876 384.34 407.806C252.09 454.326 125.32 534.726 32.75 593.436L31.25 591.076C123.93 532.296 250.86 451.796 383.41 405.166C534.68 351.956 659.45 354.346 764.85 412.486C802.69 433.356 838.79 459.316 873.69 484.426C929.11 524.286 986.42 565.516 1052.21 587.446C1158.39 622.836 1278.45 584.266 1384.38 550.216C1393.82 547.186 1403.12 544.196 1412.27 541.306C1443.35 531.486 1475.11 520.726 1505.83 510.306C1605.57 476.496 1708.7 441.526 1813.74 429.886C1900.85 420.226 1964.03 443.246 2024.97 506.856L2026.03 507.966C2079.15 563.416 2125.03 611.306 2205.32 614.956C2323.52 620.316 2443.99 562.476 2550.32 511.426C2573.56 500.266 2595.51 489.736 2617.4 479.806C2775.26 408.166 2919.3 352.206 3083.5 393.346C3239.33 432.386 3371.55 531.836 3491.22 633.486L3489.41 635.616V635.626Z" fill="#F1E9D3"/>
<path d="M3490.72 657.295C3371.41 561.725 3226.84 458.645 3059.29 418.625C2893.55 379.035 2756.6 436.865 2619.31 504.945C2597.83 515.595 2576.15 527.005 2553.2 539.085C2453.7 591.455 2341.23 650.645 2229.23 650.655C2226.41 650.655 2223.62 650.615 2220.8 650.545C2135.48 648.255 2086.68 596.475 2035.02 541.665C1974.37 477.325 1911.27 454.135 1824.02 464.115C1721.87 475.805 1621.79 511.345 1525 545.715C1497.34 555.535 1468.74 565.695 1440.75 575.045C1431.2 578.235 1421.48 581.535 1411.62 584.895C1304.81 621.205 1183.75 662.365 1075.2 628.895C1004.24 607.015 942.86 563.055 883.51 520.535C848.95 495.775 813.21 470.175 776.12 449.385C670.7 390.255 545.96 385.705 394.79 435.455C261.82 479.215 132.31 557.705 37.7498 615.005L36.2998 612.605C130.98 555.225 260.64 476.645 393.91 432.785C545.87 382.775 671.33 387.395 777.48 446.925C814.7 467.795 850.5 493.445 885.13 518.245C944.3 560.635 1005.49 604.455 1076.02 626.205C1183.7 659.405 1304.31 618.405 1410.72 582.235C1420.58 578.885 1430.31 575.575 1439.87 572.385C1467.83 563.045 1496.42 552.895 1524.07 543.075C1621 508.655 1721.24 473.055 1823.71 461.325C1911.93 451.225 1975.75 474.675 2037.07 539.735C2090.55 596.475 2136.74 645.475 2220.89 647.735C2334.89 650.885 2450.21 590.135 2551.91 536.605C2574.88 524.515 2596.58 513.095 2618.08 502.435C2755.85 434.125 2893.31 376.105 3059.96 415.905C3228.05 456.055 3372.94 559.355 3492.49 655.115L3490.74 657.305L3490.72 657.295Z" fill="#F1E9D3"/>
<path d="M3491.43 683.696C3374.77 594.136 3217.87 485.726 3038.52 442.056C2958.13 422.486 2891 419.656 2833.27 433.406C2756.74 451.636 2685.79 490.846 2617.18 528.776L2612.75 531.226C2593.29 541.976 2573.64 553.466 2552.83 565.636C2456.98 621.676 2348.34 685.086 2237.83 683.346C2149.55 681.876 2099.15 629.446 2045.79 573.936C1983.04 508.656 1918.38 485.396 1829.56 496.166C1728.75 508.396 1630.4 545.316 1535.29 581.026C1508.16 591.216 1480.1 601.746 1452.67 611.436C1444.73 614.236 1436.69 617.106 1428.56 620.016C1321.4 658.296 1199.95 701.666 1089.04 667.246C1014.63 644.146 949.82 598.246 887.13 553.866C851.25 528.456 814.15 502.186 775.85 480.666C534.7 345.206 237.28 523.416 40.46 641.336L39.02 638.936C236.38 520.676 534.64 341.946 777.22 478.226C815.65 499.816 852.81 526.126 888.75 551.576C951.25 595.836 1015.88 641.606 1089.87 664.576C1199.88 698.726 1320.87 655.516 1427.61 617.376C1435.74 614.476 1443.79 611.596 1451.73 608.796C1479.14 599.126 1507.18 588.596 1534.3 578.416C1629.57 542.646 1728.07 505.666 1829.22 493.406C1917.81 482.656 1985.22 506.906 2047.81 572.016C2100.76 627.096 2150.77 679.126 2237.88 680.566C2239.43 680.586 2240.97 680.606 2242.52 680.606C2350.67 680.606 2457.24 618.296 2551.42 563.246C2572.24 551.076 2591.91 539.576 2611.4 528.806L2615.83 526.356C2684.61 488.336 2755.72 449.026 2832.63 430.716C2890.8 416.866 2958.36 419.686 3039.19 439.376C3219.05 483.166 3376.27 591.786 3493.15 681.506L3491.44 683.726L3491.43 683.696Z" fill="#F1E9D3"/>
<path d="M1182.14 718.655C1152.84 718.655 1123.69 714.915 1095.07 706.055C1017.07 681.905 948.72 634.515 882.62 588.695C844.74 562.425 805.56 535.275 765.18 512.965C514.92 374.705 229.3 554.475 40.3001 673.435L38.8101 671.065C148.85 601.805 266.53 530.865 389.02 491.165C534.27 444.085 657.76 450.415 766.54 510.515C807.04 532.895 846.28 560.095 884.22 586.395C950.14 632.095 1018.31 679.355 1095.9 703.385C1208 738.095 1328.65 693.405 1435.1 653.975C1442.56 651.215 1449.96 648.475 1457.29 645.785C1484.55 635.785 1512.45 624.895 1539.43 614.375C1633.16 577.815 1730.08 540.005 1829.83 526.635C1918.08 514.815 1985.7 537.825 2055.96 603.585L2056.52 604.105C2117.62 661.285 2170.39 710.675 2257.91 711.265C2364.43 711.885 2465.32 646.405 2554.31 588.545C2572.59 576.655 2589.87 565.425 2607.07 554.795L2611.04 552.335C2674.72 512.965 2740.57 472.255 2813.34 453.555C2886.26 434.825 2963.13 449.475 3021.95 464.335C3205.66 510.745 3370.56 622.005 3493.69 713.755L3492.02 716.005C3369.1 624.415 3204.5 513.345 3021.27 467.055C2962.77 452.275 2886.35 437.705 2814.04 456.275C2741.68 474.865 2676.02 515.465 2612.52 554.725L2608.55 557.185C2591.37 567.805 2574.11 579.025 2555.84 590.895C2467 648.655 2366.37 714.075 2259.63 714.075C2259.05 714.075 2258.48 714.075 2257.89 714.075C2169.27 713.485 2116.13 663.745 2054.6 606.165L2054.04 605.645C1984.46 540.525 1917.51 517.725 1830.2 529.425C1730.79 542.745 1634.02 580.485 1540.45 616.995C1513.46 627.525 1485.55 638.415 1458.26 648.425C1450.93 651.115 1443.54 653.855 1436.08 656.615C1356.29 686.175 1268.54 718.675 1182.16 718.675L1182.14 718.655Z" fill="#F1E9D3"/>
<path d="M1174.43 755.936C1142.53 755.936 1110.72 751.546 1079.39 740.956C1002.54 714.996 934.67 668.436 869.04 623.416C828.38 595.526 786.33 566.676 742.67 543.126C506.56 415.706 255.11 561.936 37.9401 708.986L36.3701 706.666C136.1 639.136 252.68 563.646 374.32 522.526C513.36 475.526 634.28 481.456 744 540.656C787.79 564.286 829.9 593.176 870.62 621.106C936.1 666.016 1003.8 712.466 1080.29 738.306C1194.14 776.776 1315.04 732.646 1421.7 693.706C1427.67 691.526 1433.62 689.356 1439.53 687.216C1469.64 676.296 1500.45 664.306 1530.24 652.706C1625.47 615.646 1723.94 577.326 1825.08 563.066C1911.3 550.916 1981.96 573.296 2061.36 637.926L2070.38 645.286C2133.35 696.696 2192.83 745.256 2278.16 746.406C2279.26 746.416 2280.37 746.426 2281.46 746.426C2386.33 746.426 2480.08 678.956 2562.91 619.346C2577.43 608.896 2591.15 599.026 2604.96 589.446L2614.03 583.146C2675.5 540.436 2739.06 496.266 2810.98 478.386C2882.47 460.606 2960.44 476.906 3020.38 493.106C3197.56 540.976 3353.79 644.926 3496.22 750.136L3494.56 752.386C3352.35 647.336 3196.38 543.546 3019.65 495.806C2960.04 479.706 2882.53 463.476 2811.66 481.106C2740.24 498.866 2676.89 542.886 2615.63 585.456L2606.56 591.756C2592.77 601.316 2579.06 611.186 2564.55 621.626C2480.5 682.106 2385.28 750.756 2278.13 749.216C2191.83 748.056 2131.98 699.186 2068.62 647.466L2059.6 640.116C1980.86 576.026 1910.84 553.836 1825.48 565.866C1724.66 580.076 1626.34 618.346 1531.27 655.336C1501.46 666.936 1470.64 678.936 1440.5 689.866C1434.59 692.006 1428.65 694.176 1422.68 696.356C1344.82 724.776 1259.39 755.946 1174.45 755.956L1174.43 755.936Z" fill="#F1E9D3"/>
<path d="M1156.2 792.456C1125.42 792.456 1094.76 788.436 1064.61 778.806C984.81 753.316 914.71 704.336 846.93 656.976C808.73 630.286 769.22 602.676 728.65 579.806C486.04 443.056 242.91 594.316 34.0699 746.836L32.4199 744.576C129.29 673.826 242.76 594.846 363.55 552.956C498.2 506.276 618.07 514.256 730.03 577.366C770.72 600.306 810.28 627.946 848.54 654.676C916.16 701.916 986.08 750.776 1065.47 776.136C1177.94 812.056 1298.08 769.146 1404.09 731.286C1411.83 728.526 1419.51 725.776 1427.13 723.086C1457.47 712.366 1488.54 700.586 1518.58 689.196C1614.62 652.796 1713.93 615.156 1815.49 601.086C1917.42 586.956 1992.51 623.246 2073.88 682.066L2082.39 688.226C2154.4 740.386 2222.53 789.596 2313.39 787.896C2416.16 785.926 2505.01 714.756 2583.4 651.966C2597.77 640.456 2611.35 629.576 2624.98 619.106L2627.49 617.176C2683.18 574.386 2740.76 530.126 2808.03 509.506C2878.01 488.046 2954.97 503.706 3014.21 519.746C3196.4 569.076 3360.72 684.776 3500.43 789.356L3498.75 791.596C3359.24 687.166 3195.19 571.646 3013.48 522.446C2954.6 506.506 2878.14 490.936 2808.85 512.186C2742.07 532.666 2684.69 576.766 2629.2 619.406L2626.69 621.336C2613.07 631.796 2599.51 642.666 2585.15 654.166C2506.41 717.236 2417.17 788.726 2313.44 790.716C2221.54 792.546 2149.95 740.646 2080.74 690.516L2072.23 684.356C1991.4 625.936 1916.87 589.896 1815.86 603.876C1714.61 617.896 1615.45 655.486 1519.56 691.826C1489.5 703.216 1458.41 715.006 1428.05 725.736C1420.43 728.426 1412.75 731.176 1405.02 733.936C1326.91 761.836 1241.14 792.466 1156.2 792.476V792.456Z" fill="#F1E9D3"/>
<path d="M2338.18 836.866C2247.3 836.866 2171.21 787.086 2097.61 738.936C2090.72 734.426 2083.85 729.936 2077 725.506C1985.3 666.166 1903.39 629.406 1801.65 642.876C1698.42 656.546 1597.03 693.266 1498.99 728.776C1469.11 739.596 1438.21 750.786 1408.01 761.036C1399 764.086 1389.92 767.216 1380.76 770.376C1301.94 797.496 1215.61 827.196 1130.39 827.206C1096.11 827.206 1062.03 822.406 1028.66 810.696C952.69 784.036 886.06 736.246 821.63 690.026C782.18 661.726 741.38 632.466 699.02 608.516C460.7 473.776 237.48 622.356 29.2603 786.076L27.5303 783.876C120.68 710.636 229.59 628.876 343.55 585.606C472.62 536.606 589.35 543.296 700.4 606.086C742.89 630.106 783.75 659.416 823.27 687.756C887.54 733.856 954 781.526 1029.6 808.056C1144.99 848.556 1269.77 805.616 1379.86 767.736C1389.02 764.586 1398.11 761.456 1407.13 758.396C1437.3 748.156 1468.19 736.976 1498.06 726.156C1596.25 690.596 1697.77 653.816 1801.31 640.106C1903.89 626.546 1986.33 663.486 2078.55 723.166C2085.41 727.606 2092.28 732.096 2099.17 736.606C2172.43 784.536 2248.17 834.086 2338.22 834.086C2339.05 834.086 2339.88 834.086 2340.71 834.076C2446.1 833.006 2532.46 756.216 2608.65 688.466C2623.29 675.446 2637.12 663.156 2651.05 651.356C2702 608.206 2759.75 559.296 2826.44 538.526C2895.14 517.126 2971.67 534.566 3030.66 552.136C3202.49 603.346 3353.4 712.916 3505.66 830.266L3503.95 832.486C3351.9 715.306 3201.23 605.896 3029.86 554.826C2971.25 537.366 2895.26 520.026 2827.27 541.196C2761.13 561.796 2703.61 610.506 2652.86 653.486C2638.95 665.266 2625.14 677.546 2610.51 690.556C2533.95 758.636 2447.18 835.786 2340.74 836.866C2339.9 836.866 2339.05 836.876 2338.21 836.876L2338.18 836.866Z" fill="#F1E9D3"/>
<path d="M2370.1 886.186C2276.74 886.186 2193.96 836.176 2113.81 787.746C2102.82 781.106 2091.46 774.246 2080.44 767.746C1989.37 714.076 1898.2 667.056 1784.3 680.906C1679.19 693.696 1575.48 729.346 1475.18 763.826C1444.79 774.276 1413.37 785.076 1382.67 794.956C1371.01 798.706 1359.17 802.616 1347.18 806.576C1237.06 842.936 1112.24 884.166 999.25 844.936C922.78 818.386 856.96 769.376 793.32 721.976C753.31 692.176 711.93 661.356 668.42 636.546C418.17 493.846 190.43 685.656 24.1398 825.726L22.3398 823.586C120.4 740.996 217.18 663.176 322.99 618.736C446.94 566.686 560.38 571.716 669.81 634.116C713.47 659.016 754.92 689.876 795 719.736C858.47 767.006 924.11 815.886 1000.18 842.286C1112.27 881.186 1236.61 840.136 1346.31 803.916C1358.31 799.956 1370.16 796.036 1381.82 792.286C1412.49 782.406 1443.9 771.616 1474.28 761.166C1574.71 726.636 1678.57 690.936 1783.97 678.116C1898.74 664.156 1990.37 711.406 2081.87 765.326C2092.9 771.826 2104.27 778.696 2115.27 785.336C2198.12 835.386 2283.75 887.176 2380.71 883.156C2482.11 878.976 2562.42 800.266 2633.28 730.816C2645.95 718.396 2657.92 706.666 2669.94 695.396L2674.49 691.126C2724.82 643.876 2781.86 590.326 2850.22 568.776C2918.13 547.366 2993.56 566.536 3051.7 585.616C3225.35 642.616 3377.2 764.326 3511.18 871.716L3509.43 873.896C3375.64 766.666 3223.99 645.116 3050.83 588.276C2993.09 569.326 2918.21 550.296 2851.06 571.446C2783.31 592.806 2726.51 646.126 2676.4 693.166L2671.85 697.436C2659.86 708.686 2647.9 720.406 2635.24 732.816C2564.02 802.616 2483.3 881.736 2380.82 885.956C2377.24 886.096 2373.66 886.176 2370.12 886.176L2370.1 886.186Z" fill="#F1E9D3"/>
<path d="M2404.34 937.265C2305.25 937.265 2210.12 882.715 2126.12 834.555C2110.28 825.475 2095.32 816.895 2080.28 808.605C1975.75 751.005 1879.85 704.365 1764.53 717.175C1655.51 729.285 1547.62 764.435 1443.28 798.445C1409.82 809.345 1375.23 820.625 1341.41 830.845C1329.05 834.585 1316.45 838.515 1303.65 842.505C1193.91 876.745 1069.52 915.545 959.57 875.335C885.82 848.365 822.9 799.285 762.05 751.825C724.8 722.765 686.28 692.725 645.8 668.215C403.22 521.315 190.35 711.855 19.3099 864.965L17.4399 862.875C189.17 709.155 402.9 517.835 647.25 665.815C687.87 690.415 726.45 720.515 763.77 749.615C824.44 796.945 887.19 845.875 960.53 872.705C1069.59 912.595 1193.5 873.935 1302.82 839.825C1315.63 835.835 1328.24 831.895 1340.6 828.155C1374.39 817.935 1408.97 806.665 1442.42 795.765C1546.89 761.715 1654.92 726.515 1764.23 714.375C1880.35 701.465 1976.68 748.305 2081.63 806.145C2096.69 814.445 2111.66 823.025 2127.51 832.115C2211.21 880.105 2306.01 934.455 2404.34 934.455C2404.99 934.455 2405.63 934.455 2406.28 934.455C2512.39 933.675 2591.9 847.835 2662.05 772.105C2673.65 759.585 2684.6 747.755 2695.58 736.395L2700.52 731.285C2748.15 681.935 2802.13 626.005 2868.35 602.135C2939.78 576.385 3021.98 600.445 3077.59 620.785C3238.07 679.475 3373.28 792.745 3504.04 902.295L3516.38 912.635L3514.58 914.785L3502.24 904.445C3371.66 795.055 3236.64 681.925 3076.62 623.415C3021.42 603.225 2939.87 579.335 2869.29 604.775C2803.69 628.415 2749.95 684.105 2702.53 733.235L2697.59 738.355C2686.64 749.695 2675.69 761.505 2664.1 774.015C2593.56 850.165 2513.62 936.485 2406.3 937.265C2405.65 937.265 2404.99 937.265 2404.33 937.265H2404.34Z" fill="#F1E9D3"/>
<path d="M2435.66 988.685C2333.04 988.685 2230.68 931.825 2140.02 881.455C2119.17 869.875 2099.48 858.935 2080.05 848.775C1975.35 794.055 1867.09 737.475 1742.49 750.425C1631.15 762.015 1520.67 796.145 1413.82 829.155C1380.21 839.545 1345.45 850.285 1311.45 860.055C1296.86 864.245 1282.1 868.695 1266.47 873.405C1157.03 906.375 1032.98 943.745 926.32 905.715C853.25 879.675 792.49 829.825 733.73 781.625C696.86 751.375 658.73 720.105 618.06 695.155C515.01 631.955 409.79 628.025 296.37 683.135C197.53 731.165 106.33 817.125 25.86 892.965L15.4 902.825L13.48 900.785L23.94 890.935C104.55 814.955 195.92 728.835 295.14 680.625C409.48 625.065 515.59 629.035 619.51 692.785C660.34 717.825 698.55 749.165 735.49 779.475C794.07 827.525 854.63 877.215 927.24 903.095C1033.04 940.805 1156.62 903.585 1265.64 870.735C1281.28 866.025 1296.05 861.575 1310.66 857.375C1344.63 847.605 1379.37 836.875 1412.97 826.495C1519.94 793.445 1630.55 759.275 1742.17 747.665C1867.61 734.595 1976.25 791.395 2081.31 846.315C2100.78 856.495 2120.48 867.435 2141.35 879.025C2234.75 930.905 2340.64 989.745 2445.9 985.705C2549.55 981.765 2624.69 891.915 2690.99 812.645C2703.09 798.175 2714.52 784.515 2725.88 771.665L2729.03 768.095C2774.8 716.275 2826.67 657.545 2893.38 633.325C2958.37 609.725 3030.27 629.755 3085.65 649.825C3239.67 705.675 3367.63 817.835 3491.37 926.305C3501.14 934.875 3510.87 943.405 3520.57 951.855L3518.73 953.965C3509.04 945.505 3499.31 936.975 3489.53 928.405C3365.98 820.105 3238.22 708.125 3084.7 652.445C3029.77 632.525 2958.49 612.655 2894.34 635.945C2828.3 659.925 2776.67 718.365 2731.13 769.935L2727.98 773.505C2716.65 786.325 2705.23 799.975 2693.15 814.425C2626.48 894.145 2550.91 984.495 2446.01 988.485C2442.55 988.615 2439.09 988.675 2435.63 988.675L2435.66 988.685Z" fill="#F1E9D3"/>
<path d="M2469.42 1038.57C2359.75 1038.57 2247.79 977.525 2148.91 923.605C2124.11 910.085 2100.68 897.305 2077.72 885.665L2064.67 879.036C1955.98 823.776 1843.59 766.656 1719.9 778.886C1606.94 790.076 1494.5 823.556 1385.76 855.936C1351.83 866.036 1316.75 876.485 1282.47 885.995C1266.16 890.525 1249.45 895.446 1231.77 900.656C1119.02 933.896 991.22 971.576 884.55 930.086C817.08 903.846 761.32 855.956 707.39 809.636C674.62 781.486 640.73 752.385 604.71 728.615C509.81 665.995 394.51 657.865 288.37 706.305C201.66 745.875 131.51 817.775 63.6601 887.305C47.0501 904.325 29.8801 921.925 13.0601 938.385L11.1001 936.385C27.9001 919.955 45.0601 902.365 61.6601 885.355C129.68 815.645 200.02 743.556 287.21 703.766C394.24 654.926 510.53 663.125 606.25 726.295C642.42 750.165 676.37 779.326 709.21 807.526C762.96 853.686 818.54 901.425 885.56 927.495C991.34 968.625 1118.65 931.095 1230.97 897.985C1248.66 892.765 1265.37 887.846 1281.71 883.316C1315.97 873.816 1351.04 863.366 1384.95 853.266C1493.81 820.846 1606.39 787.325 1719.62 776.115C1844.12 763.775 1956.89 821.105 2065.94 876.555L2078.99 883.186C2101.99 894.846 2125.43 907.635 2150.26 921.165C2248.84 974.915 2360.48 1035.78 2469.43 1035.78C2470.41 1035.78 2471.37 1035.78 2472.35 1035.77C2577.69 1034.71 2653.01 935.586 2713.53 855.936C2723.83 842.376 2733.56 829.576 2743.18 817.526L2747.86 811.656C2790.38 758.326 2838.57 697.886 2903.01 669.286C2972.04 638.646 3050.6 662.396 3103.68 682.906C3248.75 738.986 3368.32 847.645 3483.94 952.725C3497.09 964.675 3510.16 976.556 3523.18 988.266L3521.31 990.346C3508.29 978.626 3495.21 966.746 3482.06 954.786C3366.62 849.876 3247.26 741.396 3102.67 685.506C3050.05 665.166 2972.22 641.616 2904.14 671.836C2840.33 700.156 2792.36 760.316 2750.04 813.386L2745.36 819.245C2735.76 831.265 2726.04 844.055 2715.75 857.605C2654.86 937.745 2579.08 1037.48 2472.36 1038.55C2471.38 1038.56 2470.39 1038.56 2469.41 1038.56L2469.42 1038.57Z" fill="#F1E9D3"/>
<path d="M2489 1079.38C2377.18 1079.38 2259.95 1015.88 2156.19 959.665C2128.29 944.555 2101.95 930.275 2076.58 917.675C2068.02 913.425 2059.41 909.105 2050.76 904.775C1938.17 848.355 1821.74 790.005 1695.8 802.165C1581.33 813.205 1467.43 846.745 1357.29 879.175C1322.44 889.435 1286.41 900.045 1251.17 909.685C1234.65 914.205 1217.58 919.195 1199.5 924.485C1095.21 954.995 965.41 992.965 862.99 955.675C795.19 930.995 740.8 882.095 688.2 834.795C655.26 805.185 621.21 774.555 584.33 750.375C491.95 689.805 398.26 684.505 297.9 734.195C210.29 777.565 129.44 856.855 58.1099 926.815C42.3299 942.285 27.4299 956.905 12.5799 971.045L10.6499 969.015C25.4799 954.895 40.3799 940.275 56.1499 924.815C127.63 854.715 208.64 775.255 296.66 731.685C397.99 681.535 492.58 686.875 585.86 748.035C622.92 772.335 657.05 803.025 690.07 832.715C742.47 879.825 796.65 928.545 863.94 953.045C965.5 990.015 1089.4 953.775 1198.71 921.795C1216.8 916.505 1233.88 911.505 1250.43 906.985C1285.65 897.355 1321.67 886.745 1356.5 876.485C1466.77 844.015 1580.79 810.445 1695.53 799.375C1822.27 787.155 1939.07 845.675 2052.01 902.265C2060.66 906.595 2069.27 910.915 2077.82 915.165C2103.23 927.795 2129.6 942.075 2157.52 957.205C2263.92 1014.85 2384.52 1080.13 2498.43 1076.43C2601.52 1073.04 2673.77 972.405 2731.82 891.555C2742.74 876.345 2753.05 861.985 2763.18 848.725L2766.33 844.595C2808.15 789.855 2855.54 727.805 2920.86 701.625C2985.38 675.765 3059.01 698.085 3108.77 717.125C3255.34 773.195 3375.28 884.045 3491.26 991.245C3502.06 1001.23 3512.8 1011.16 3523.5 1020.98L3521.61 1023.04C3510.91 1013.22 3500.17 1003.29 3489.37 993.305C3373.58 886.285 3253.85 775.625 3107.78 719.745C3058.45 700.875 2985.52 678.745 2921.91 704.235C2857.3 730.125 2810.16 791.845 2768.56 846.305L2765.41 850.435C2755.3 863.655 2745 878.005 2734.1 893.195C2675.69 974.545 2603 1075.8 2498.53 1079.24C2495.36 1079.34 2492.18 1079.4 2489 1079.4V1079.38Z" fill="#F1E9D3"/>
<path d="M2493.36 1107.95C2423.96 1107.95 2352.6 1077.11 2289.31 1049.76L2286.31 1048.46C2228.19 1023.35 2170.63 994.546 2114.97 966.686C2101.4 959.896 2087.83 953.106 2074.24 946.356C2064.74 941.636 2055.18 936.846 2045.55 932.026C1927.06 872.656 1804.52 811.256 1672.86 823.506C1559.73 834.026 1447.28 868.306 1338.53 901.456C1305.47 911.536 1271.29 921.956 1237.9 931.436C1221.81 936.006 1205.13 941.056 1187.48 946.386C1080.62 978.696 947.64 1018.92 843.86 979.096C778.37 953.966 726.12 905.346 675.58 858.336C644.25 829.186 611.86 799.056 576.8 775.046C388.96 646.436 234.75 793.826 98.6902 923.856C68.7702 952.446 40.5202 979.456 12.5102 1003.1L10.7002 1000.96C38.6402 977.366 66.8702 950.386 96.7502 921.836C233.58 791.066 388.67 642.836 578.38 772.746C613.61 796.866 646.08 827.076 677.49 856.296C727.83 903.126 779.88 951.556 844.86 976.486C947.74 1015.97 1080.22 975.896 1186.66 943.716C1204.32 938.376 1221.01 933.326 1237.12 928.746C1270.48 919.266 1304.65 908.846 1337.69 898.776C1446.57 865.576 1559.16 831.256 1672.57 820.716C1805.05 808.406 1927.93 869.976 2046.78 929.526C2056.4 934.346 2065.96 939.136 2075.46 943.846C2089.05 950.596 2102.63 957.386 2116.2 964.186C2171.83 992.026 2229.35 1020.81 2287.4 1045.89L2290.4 1047.19C2356.14 1075.6 2430.6 1107.79 2502.21 1104.97C2602.1 1101.03 2673.51 1006.11 2730.88 929.826C2741.19 916.126 2750.92 903.186 2760.54 891.076L2763.97 886.756C2806.36 833.326 2854.39 772.756 2919.97 747.106C2985.26 721.566 3059.8 743.846 3110.19 762.836C3272.79 824.096 3410.92 950.336 3521.92 1051.78L3520.03 1053.85C3409.21 952.566 3271.29 826.526 3109.2 765.456C3059.24 746.636 2985.38 724.516 2920.98 749.716C2856.11 775.096 2808.32 835.346 2766.15 888.506L2762.72 892.826C2753.13 904.916 2743.4 917.836 2733.11 931.526C2675.38 1008.28 2603.53 1103.79 2502.31 1107.79C2499.32 1107.91 2496.32 1107.96 2493.33 1107.96L2493.36 1107.95Z" fill="#F1E9D3"/>
<path d="M2485.88 1136.35C2368.22 1136.35 2246.78 1070.97 2139.53 1013.22C2113.64 999.276 2089.2 986.116 2065.31 974.096C2054.28 968.546 2043.15 962.876 2031.94 957.156C1916.91 898.526 1786.53 832.056 1652.67 845.206C1539.91 856.276 1428.22 892.386 1320.21 927.306C1286.18 938.306 1250.98 949.686 1216.62 959.976C1202.52 964.196 1187.95 968.786 1172.53 973.636C1067.88 1006.56 937.64 1047.52 835.53 1008.8C769.81 983.876 717.78 933.586 667.46 884.966C638.99 857.446 609.55 828.996 578.27 805.926C485.63 737.576 373.53 734.636 278.4 798.066C226.11 832.926 180.63 878.546 136.65 922.676C97.73 961.716 57.49 1002.09 12.45 1035.17L10.79 1032.91C55.65 999.956 95.82 959.666 134.67 920.696C178.75 876.476 224.33 830.756 276.85 795.736C373.01 731.616 486.31 734.586 579.94 803.666C611.36 826.846 640.87 855.366 669.41 882.946C719.52 931.376 771.34 981.456 836.53 1006.18C937.74 1044.56 1067.46 1003.75 1171.7 970.966C1187.13 966.116 1201.71 961.526 1215.83 957.296C1250.17 947.016 1285.34 935.636 1319.37 924.636C1427.52 889.666 1539.36 853.516 1652.42 842.406C1787.07 829.186 1917.86 895.836 2033.23 954.646C2044.44 960.356 2055.56 966.036 2066.59 971.586C2090.51 983.626 2114.97 996.796 2140.88 1010.75C2248.75 1068.83 2370.99 1134.74 2488.88 1133.53C2589.24 1132.58 2659.21 1044.28 2720.95 966.366C2731.11 953.546 2740.7 941.436 2750.22 929.996L2750.95 929.116C2791.95 879.836 2838.42 823.986 2900.01 797.846C2964.73 770.366 3040.66 789.866 3092.15 806.916C3253.5 860.356 3392.69 970.476 3519.08 1081.53L3517.23 1083.64C3391.07 972.776 3252.14 862.856 3091.27 809.576C3040.21 792.666 2964.94 773.316 2901.1 800.426C2840.13 826.306 2793.89 881.886 2753.1 930.916L2752.37 931.796C2742.87 943.216 2733.29 955.306 2723.14 968.116C2661.01 1046.51 2590.6 1135.37 2488.91 1136.34C2487.91 1136.34 2486.9 1136.35 2485.9 1136.35H2485.88Z" fill="#F1E9D3"/>
<path d="M2469.25 1165.77C2468.62 1165.77 2467.98 1165.77 2467.35 1165.76C2347.85 1164.49 2223.95 1096.09 2114.63 1035.73C2087.3 1020.64 2061.49 1006.39 2036.41 993.496C2026.44 988.376 2016.38 983.146 2006.23 977.876C1893.68 919.396 1766.12 853.116 1634.94 867.456C1524.7 879.506 1416.27 917.196 1311.41 953.646C1280.5 964.396 1248.53 975.506 1217.3 985.666C1203.04 990.306 1188.29 995.346 1172.67 1000.68C1067.27 1036.68 936.11 1081.49 833.16 1041.33C766.45 1015.31 714.45 963.816 664.17 914.016C635.04 885.166 604.91 855.326 572.48 831.126C478.72 761.156 372.19 759.786 280.21 827.386C236.15 859.766 197.99 899.136 161.08 937.216C116.22 983.506 69.8299 1031.37 12.3599 1067.23L10.8799 1064.86C68.0599 1029.18 114.33 981.446 159.07 935.276C196.05 897.116 234.3 857.656 278.55 825.136C371.59 756.766 479.33 758.136 574.15 828.896C606.74 853.216 636.94 883.116 666.14 912.036C716.22 961.626 768.01 1012.92 834.18 1038.73C936.17 1078.51 1066.8 1033.89 1171.76 998.036C1187.39 992.696 1202.15 987.656 1216.42 983.006C1247.63 972.846 1279.58 961.746 1310.48 951.006C1415.49 914.506 1524.07 876.766 1634.62 864.676C1766.63 850.246 1894.6 916.726 2007.51 975.396C2017.65 980.666 2027.7 985.886 2037.68 991.016C2062.8 1003.93 2088.63 1018.19 2115.98 1033.29C2225.01 1093.48 2348.58 1161.7 2467.38 1162.97C2468 1162.97 2468.63 1162.98 2469.24 1162.98C2568.11 1162.98 2638.9 1079.08 2701.42 1005.01C2711.84 992.666 2721.67 981.006 2731.47 969.936L2732.72 968.526C2774.57 921.226 2822.01 867.616 2883.32 844.766C2946.76 821.126 3019.32 837.606 3081.94 856.846C3218.32 898.746 3356.03 979.416 3515.33 1110.7L3513.55 1112.86C3354.55 981.816 3217.14 901.316 3081.12 859.526C3018.95 840.426 2946.95 824.046 2884.3 847.396C2823.64 870.006 2776.45 923.336 2734.82 970.386L2733.57 971.796C2723.79 982.846 2713.96 994.496 2703.56 1006.83C2640.65 1081.37 2569.41 1165.79 2469.25 1165.79V1165.77Z" fill="#F1E9D3"/>
<path d="M2445.3 1194.61C2444.55 1194.61 2443.81 1194.61 2443.06 1194.6C2325.27 1193.15 2204.66 1124.53 2098.25 1064C2072.78 1049.51 2048.72 1035.82 2025.23 1023.3C2013.69 1017.15 2001.99 1010.81 1990.14 1004.4C1877.21 943.256 1749.21 873.946 1618.93 890.876C1509.16 905.136 1402.13 945.336 1298.62 984.196C1266.73 996.166 1233.76 1008.56 1201.49 1019.86C1189.31 1024.13 1176.83 1028.66 1163.61 1033.47C1061.1 1070.73 933.53 1117.1 831.58 1074.66C765.03 1046.95 712.66 994.376 662.02 943.536C633.55 914.966 604.12 885.416 572.77 861.036C475.31 785.226 366.87 785.796 275.24 862.606C240.58 891.666 210.23 924.536 180.87 956.336C132.22 1009.04 81.91 1063.53 12.26 1099.29L10.98 1096.8C80.19 1061.26 128.09 1009.38 178.81 954.446C208.23 922.586 238.64 889.636 273.44 860.466C366.17 782.726 475.9 782.136 574.49 858.826C605.97 883.316 635.47 912.926 664 941.566C714.45 992.206 766.62 1044.58 832.65 1072.07C933.59 1114.1 1060.59 1067.93 1162.64 1030.84C1175.86 1026.04 1188.35 1021.5 1200.55 1017.22C1232.79 1005.92 1265.75 993.546 1297.62 981.576C1401.28 942.656 1508.47 902.406 1618.56 888.096C1749.75 871.066 1878.16 940.586 1991.46 1001.94C2003.31 1008.35 2015 1014.68 2026.53 1020.83C2050.06 1033.37 2074.13 1047.06 2099.62 1061.56C2205.74 1121.93 2326.02 1190.36 2443.08 1191.8C2443.81 1191.8 2444.55 1191.81 2445.28 1191.81C2541.82 1191.81 2612.94 1113.41 2675.74 1044.18C2685.27 1033.67 2694.27 1023.75 2703.3 1014.15C2746.62 968.106 2795.71 915.926 2858.79 893.846C2923.85 871.076 2999.98 886.676 3065.87 904.946C3209.6 944.786 3359.44 1023.71 3511.22 1139.53L3509.52 1141.76C3358.02 1026.16 3208.51 947.396 3065.12 907.646C2999.65 889.496 2924.05 873.986 2859.72 896.496C2797.29 918.346 2748.44 970.266 2705.35 1016.07C2696.33 1025.65 2687.34 1035.57 2677.82 1046.06C2614.63 1115.72 2543.05 1194.6 2445.29 1194.61H2445.3Z" fill="#F1E9D3"/>
<path d="M2418.53 1222.38C2415.52 1222.38 2412.49 1222.31 2409.43 1222.16C2290.8 1216.32 2172.35 1146.88 2067.84 1085.61C2041.96 1070.44 2017.51 1056.11 1993.43 1042.88C1983.21 1037.26 1972.85 1031.49 1962.36 1025.65C1854.06 965.296 1731.3 896.886 1605.6 915.266C1499.18 930.816 1396.19 972.816 1296.6 1013.44C1268.17 1025.03 1238.77 1037.02 1210 1048.09C1198.69 1052.44 1187.09 1057.04 1174.81 1061.91C1071.29 1102.97 942.44 1154.06 838.67 1111.25C770.09 1082.96 716.34 1028.31 664.36 975.466C634.64 945.256 603.91 914.016 571.08 888.556C472.7 812.276 365.91 813.766 278.09 892.646C247.2 920.396 220.31 951.366 194.3 981.316C141.66 1041.95 91.9401 1099.21 12.1501 1131.34L11.1001 1128.74C90.2601 1096.87 139.77 1039.85 192.18 979.476C218.24 949.456 245.19 918.426 276.21 890.556C321.03 850.306 370.42 829.876 423.01 829.836H423.14C473.36 829.836 525.1 849.366 572.78 886.336C605.75 911.906 636.55 943.216 666.34 973.496C718.13 1026.15 771.67 1080.59 839.73 1108.66C942.45 1151.03 1070.71 1100.17 1173.77 1059.3C1186.06 1054.43 1197.66 1049.83 1208.98 1045.47C1237.72 1034.42 1267.11 1022.43 1295.53 1010.84C1395.28 970.156 1498.43 928.096 1605.19 912.486C1731.82 893.986 1855.03 962.626 1963.72 1023.19C1974.2 1029.03 1984.56 1034.8 1994.78 1040.42C2018.89 1053.67 2043.36 1068.01 2069.25 1083.19C2173.48 1144.29 2291.62 1213.55 2409.56 1219.36C2507.95 1224.25 2582.85 1148.23 2648.97 1081.2C2658.8 1071.23 2668.09 1061.81 2677.43 1052.66C2722.55 1008.48 2773.69 958.396 2837.3 939.396C2899.17 920.926 2970.11 932.996 3037.57 948.806C3193.05 985.226 3355.48 1061.19 3507.28 1168.48L3505.66 1170.77C3354.15 1063.69 3192.07 987.876 3036.93 951.536C2969.86 935.816 2899.35 923.806 2838.1 942.086C2775.15 960.886 2724.27 1010.71 2679.39 1054.66C2670.07 1063.79 2660.79 1073.2 2650.96 1083.16C2586.47 1148.54 2513.64 1222.37 2418.52 1222.37L2418.53 1222.38Z" fill="#F1E9D3"/>
<path d="M2387.44 1250C2386.32 1250 2385.22 1250 2384.1 1249.97C2268.14 1247.99 2151.55 1176.73 2048.69 1113.85C2023.38 1098.38 1999.48 1083.77 1976.16 1070.49C1965.91 1064.65 1955.5 1058.63 1944.95 1052.53C1838.67 991.055 1718.21 921.385 1594.78 940.895C1491.23 957.275 1391.73 1001.35 1295.51 1043.98C1266.96 1056.63 1237.45 1069.7 1208.6 1081.68C1199.06 1085.64 1189.26 1089.8 1179.24 1094.05C1076.76 1137.51 949.23 1191.61 843.04 1144.56C775.05 1114.44 721.33 1060.34 669.38 1008.02C636.78 975.185 603.07 941.235 566.39 913.895C467.63 840.285 363.08 844.225 279.57 924.725C251.89 951.405 227.83 981.045 204.56 1009.73C151.23 1075.43 100.86 1137.49 12.03 1163.39L11.25 1160.7C99.24 1135.05 149.35 1073.32 202.39 1007.97C225.71 979.225 249.83 949.515 277.63 922.715C362.23 841.175 468.09 837.145 568.06 911.665C604.91 939.125 638.69 973.155 671.37 1006.06C723.14 1058.19 776.67 1112.1 844.18 1142.02C949.25 1188.57 1076.17 1134.75 1178.16 1091.49C1188.19 1087.24 1198 1083.08 1207.54 1079.11C1236.36 1067.14 1265.86 1054.07 1294.39 1041.44C1390.77 998.745 1490.44 954.595 1594.36 938.155C1718.78 918.475 1839.69 988.415 1946.37 1050.13C1956.92 1056.24 1967.32 1062.25 1977.57 1068.09C2000.93 1081.4 2024.85 1096.02 2050.17 1111.5C2152.73 1174.19 2268.98 1245.24 2384.17 1247.2C2479.9 1248.88 2555.44 1178.9 2622.21 1117.2C2630.85 1109.21 2639.02 1101.67 2647.28 1094.21C2694.17 1051.89 2747.31 1003.92 2810.85 985.035C2876.06 965.665 2950.53 978.235 3015.22 991.535C3183.93 1026.23 3352.94 1097.61 3504 1197.96L3502.45 1200.29C3351.69 1100.14 3183.01 1028.9 3014.66 994.275C2950.31 981.035 2876.24 968.525 2811.66 987.715C2748.73 1006.41 2695.84 1054.16 2649.17 1096.28C2640.93 1103.72 2632.77 1111.26 2624.13 1119.24C2557.75 1180.58 2482.61 1250.01 2387.48 1250.01L2387.44 1250Z" fill="#F1E9D3"/>
<path d="M2357.72 1275.73C2354.01 1275.73 2350.28 1275.63 2346.52 1275.43C2235.38 1269.51 2125.27 1200.83 2028.12 1140.22C2004.53 1125.5 1982.24 1111.6 1960.36 1098.79C1950.05 1092.76 1939.57 1086.52 1928.93 1080.19C1824.96 1018.34 1707.12 948.205 1585.47 968.855C1483.98 986.065 1387.52 1031.95 1294.23 1076.32C1266.56 1089.48 1237.94 1103.09 1209.95 1115.56C1203.79 1118.3 1197.53 1121.11 1191.19 1123.96C1088.13 1170.26 959.87 1227.88 849.87 1177.29C782.42 1146.28 728.36 1092.61 676.07 1040.7C643.65 1008.52 610.13 975.235 573.99 948.035C469.97 869.745 363.31 873.185 281.34 957.465C256.41 983.095 234.49 1011.94 213.3 1039.83C159.31 1110.88 108.31 1177.98 11.8701 1195.38L11.3701 1192.62C106.74 1175.42 157.42 1108.73 211.07 1038.13C232.32 1010.17 254.29 981.255 279.33 955.505C362.39 870.105 470.4 866.565 575.67 945.785C611.97 973.105 645.56 1006.45 678.04 1038.7C730.15 1090.43 784.04 1143.92 851.04 1174.73C959.89 1224.78 1087.51 1167.45 1190.05 1121.39C1196.4 1118.54 1202.65 1115.73 1208.82 1112.98C1236.78 1100.52 1265.38 1086.92 1293.04 1073.77C1386.5 1029.32 1483.14 983.345 1585.01 966.065C1707.67 945.255 1825.99 1015.65 1930.37 1077.76C1941 1084.09 1951.48 1090.32 1961.79 1096.35C1983.7 1109.17 2006.01 1123.09 2029.62 1137.82C2126.48 1198.24 2236.26 1266.73 2346.69 1272.61C2447.37 1277.99 2529.78 1208.8 2602.47 1147.76C2612.57 1139.28 2622.1 1131.28 2631.76 1123.38C2682.36 1082.01 2732.58 1043.46 2790.54 1026.31C2856.39 1006.83 2929.26 1017.91 2998.26 1030.92C3177.79 1064.78 3356.61 1134.85 3501.76 1228.22L3500.25 1230.58C3355.39 1137.4 3176.93 1067.47 2997.74 1033.68C2929.07 1020.73 2856.58 1009.7 2791.33 1029C2733.87 1046 2683.9 1084.37 2633.53 1125.55C2623.88 1133.44 2614.35 1141.44 2604.26 1149.91C2533.87 1209.01 2454.43 1275.7 2357.72 1275.71V1275.73Z" fill="#F1E9D3"/>
<path d="M2332.92 1299.41C2330.65 1299.41 2328.38 1299.37 2326.09 1299.31C2215.46 1295.95 2106.53 1227.17 2010.42 1166.49C1988.43 1152.61 1967.66 1139.49 1947.25 1127.36C1937.7 1121.68 1928 1115.83 1918.18 1109.9C1815.66 1048.05 1699.48 977.915 1578.24 998.025C1480.34 1014.26 1387.7 1061.18 1298.1 1106.55C1270.24 1120.66 1241.43 1135.25 1213.35 1148.41L1203.11 1153.22C1103.8 1199.89 980.2 1257.98 869.93 1212.5C797.62 1182.68 739.67 1126.62 683.63 1072.4C651.48 1041.29 618.23 1009.13 582.96 982.735C468.75 897.295 359.05 903.515 274.06 1000.24C254.52 1022.48 236.51 1047.16 219.1 1071.04C166.62 1143 112.35 1217.4 11.8103 1227.49L11.5303 1224.7C110.83 1214.74 162.32 1144.13 216.84 1069.38C234.29 1045.46 252.33 1020.72 271.96 998.375C315.98 948.275 366.61 922.085 422.45 920.515C474.95 919.085 529.5 939.225 584.64 980.475C620.05 1006.97 653.36 1039.2 685.58 1070.37C741.43 1124.4 799.18 1180.28 871 1209.9C980.13 1254.91 1103.11 1197.11 1201.92 1150.67L1212.17 1145.86C1240.22 1132.71 1269 1118.13 1296.84 1104.03C1386.62 1058.56 1479.46 1011.54 1577.78 995.245C1700.04 974.975 1816.7 1045.38 1919.63 1107.48C1929.45 1113.4 1939.13 1119.25 1948.68 1124.93C1969.12 1137.08 1989.9 1150.21 2011.91 1164.11C2107.72 1224.6 2216.31 1293.16 2326.17 1296.49C2425.71 1299.48 2511.06 1234.81 2586.32 1177.73C2595.48 1170.78 2604.54 1163.91 2613.51 1157.23C2662.58 1120.73 2723.65 1075.3 2793.19 1058.7C2861.74 1042.33 2933.89 1054.44 3007.94 1069.44C3191.02 1106.53 3361.55 1172.31 3501.1 1259.68L3499.61 1262.05C3360.34 1174.86 3190.13 1109.2 3007.38 1072.18C2933.64 1057.24 2861.82 1045.18 2793.83 1061.42C2724.86 1077.89 2664.04 1123.13 2615.17 1159.47C2606.2 1166.14 2597.15 1173.01 2588 1179.95C2514.1 1236.01 2430.54 1299.38 2332.9 1299.38L2332.92 1299.41Z" fill="#F1E9D3"/>
<path d="M2314.94 1321.63C2312.34 1321.63 2309.73 1321.59 2307.12 1321.5C2198.41 1317.9 2091.58 1250.44 1997.32 1190.92C1975.72 1177.28 1955.32 1164.39 1935.25 1152.46C1925.54 1146.68 1915.67 1140.71 1905.65 1134.66C1805.37 1074.04 1691.72 1005.34 1573.79 1025.34C1478.19 1041.55 1388.18 1089.05 1301.12 1134.98C1274.03 1149.27 1246.03 1164.05 1218.75 1177.35L1215.14 1179.11C1111.18 1229.82 993.35 1287.3 879.9 1242.27C806.59 1213.17 747.65 1157.44 690.64 1103.53C657.88 1072.55 624 1040.51 588.07 1014.33C472.33 929.965 360.68 935.495 273.67 1029.89C252.12 1053.27 232.36 1079.68 213.26 1105.22C161.48 1174.43 107.94 1245.99 14.19 1262.42L13.71 1259.66C106.37 1243.43 159.57 1172.32 211.02 1103.54C230.17 1077.94 249.97 1051.47 271.62 1027.99C316.77 979.005 368.49 953.585 425.34 952.415C478.52 951.325 533.92 971.385 589.73 1012.07C625.8 1038.36 659.74 1070.46 692.57 1101.5C749.38 1155.22 808.12 1210.77 880.94 1239.67C993.24 1284.24 1110.48 1227.05 1213.92 1176.59L1217.53 1174.83C1244.76 1161.55 1272.75 1146.78 1299.82 1132.5C1387.07 1086.47 1477.29 1038.86 1573.33 1022.58C1692.29 1002.41 1806.42 1071.4 1907.11 1132.27C1917.12 1138.32 1926.99 1144.28 1936.69 1150.06C1956.79 1162.02 1977.21 1174.91 1998.82 1188.56C2092.78 1247.89 2199.27 1315.14 2307.22 1318.71C2406.91 1322.03 2496.49 1260.61 2575.47 1206.44C2586.48 1198.89 2596.88 1191.76 2607.4 1184.71C2662.77 1147.63 2725.53 1105.61 2796.28 1089.87C2868.75 1073.75 2945.69 1087.89 3012.11 1102.4C3159.22 1134.55 3314.43 1194.09 3500.57 1289.76L3499.29 1292.25C3313.38 1196.69 3158.38 1137.24 3011.51 1105.14C2945.38 1090.69 2868.8 1076.6 2796.88 1092.61C2726.64 1108.23 2664.12 1150.1 2608.95 1187.04C2598.44 1194.08 2588.05 1201.21 2577.04 1208.75C2499.76 1261.75 2412.43 1321.64 2314.93 1321.64L2314.94 1321.63Z" fill="#F1E9D3"/>
<path d="M2302.22 1343.7C2300.72 1343.7 2299.22 1343.69 2297.71 1343.66C2189.9 1341.72 2083.66 1274.82 1989.92 1215.8C1968.78 1202.49 1948.81 1189.92 1929.22 1178.29C1918.72 1172.06 1908.04 1165.6 1897.17 1159.03C1798.16 1099.14 1685.93 1031.26 1570.08 1051.94C1475.45 1068.83 1386.98 1117.45 1301.43 1164.46C1274.44 1179.29 1246.53 1194.63 1219.33 1208.41C1146.58 1245.27 1060.63 1288.81 973.18 1288.81C942.75 1288.81 912.16 1283.54 881.86 1270.89C810.24 1240.98 752.51 1187.15 696.68 1135.09C661.52 1102.31 625.17 1068.41 585.85 1041.02C475.28 963.995 362.75 970.535 277.13 1058.97C252.51 1084.39 230.27 1113.73 208.75 1142.1C158.23 1208.72 105.99 1277.6 19.2801 1300.73L18.5601 1298.02C104.35 1275.15 156.29 1206.65 206.52 1140.41C228.08 1111.98 250.38 1082.57 275.12 1057.03C319.74 1010.95 370.56 986.585 426.2 984.615C478.21 982.765 533.99 1001.49 587.45 1038.73C626.93 1066.23 663.36 1100.2 698.59 1133.05C754.24 1184.94 811.78 1238.6 882.94 1268.32C999.13 1316.84 1120.53 1255.34 1218.07 1205.92C1245.23 1192.16 1273.12 1176.84 1300.09 1162.01C1385.84 1114.89 1474.51 1066.16 1569.59 1049.19C1686.49 1028.32 1799.19 1096.49 1898.62 1156.64C1909.48 1163.21 1920.16 1169.67 1930.65 1175.89C1950.28 1187.53 1970.26 1200.12 1991.42 1213.44C2084.84 1272.27 2190.73 1338.94 2297.76 1340.86C2396.46 1342.75 2488.93 1284.96 2570.5 1234.07C2585.48 1224.73 2599.63 1215.9 2613.87 1207.36C2677.66 1169.11 2735.72 1136.25 2800.33 1121.51C2873.06 1104.92 2950.46 1118.27 3016.59 1133.51C3147.15 1163.61 3271.84 1218.34 3392.42 1271.27C3427.49 1286.66 3463.74 1302.58 3499.52 1317.61L3498.44 1320.19C3462.64 1305.15 3426.37 1289.23 3391.3 1273.84C3270.83 1220.97 3146.27 1166.29 3015.96 1136.25C2950.14 1121.07 2873.12 1107.78 2800.95 1124.25C2736.74 1138.9 2678.89 1171.65 2615.31 1209.77C2601.09 1218.3 2586.95 1227.12 2571.99 1236.45C2491.34 1286.77 2400.07 1343.7 2302.23 1343.7H2302.22Z" fill="#F1E9D3"/>
<path d="M2294.94 1365.32C2292.98 1365.32 2291.04 1365.3 2289.08 1365.26C2182.12 1362.92 2076.87 1297.11 1984 1239.05C1963.02 1225.93 1943.2 1213.54 1923.71 1202.06C1912.94 1195.71 1901.94 1189.09 1890.74 1182.35C1792.69 1123.31 1681.55 1056.39 1567.86 1077.67C1474.07 1095.23 1386.88 1145.02 1302.56 1193.18C1275.94 1208.38 1248.42 1224.1 1221.6 1238.21C1149.66 1276.06 1064.61 1320.81 976.83 1320.82C946.78 1320.82 916.42 1315.58 886.14 1303.02C814.7 1273.38 757.37 1219.7 701.92 1167.79C666.95 1135.05 630.79 1101.2 591.58 1073.9C481.64 997.345 368.38 1003.59 280.85 1091.03C253.34 1118.52 228.79 1150.59 205.06 1181.61C156.14 1245.55 105.56 1311.66 26.1802 1341.29L25.2002 1338.67C103.82 1309.32 154.16 1243.53 202.83 1179.91C226.62 1148.81 251.22 1116.66 278.86 1089.05C324.31 1043.64 375.6 1019.61 431.3 1017.61C484.49 1015.72 538.98 1033.87 593.17 1071.6C632.55 1099.02 668.78 1132.94 703.82 1165.75C759.08 1217.49 816.23 1270.99 887.2 1300.43C1004.7 1349.18 1124.23 1286.28 1220.28 1235.74C1247.05 1221.65 1274.56 1205.95 1301.16 1190.76C1385.68 1142.49 1473.09 1092.58 1567.34 1074.93C1682.08 1053.45 1793.7 1120.66 1892.18 1179.96C1903.37 1186.7 1914.36 1193.31 1925.12 1199.66C1944.64 1211.16 1964.47 1223.56 1985.47 1236.69C2078.03 1294.56 2182.94 1360.14 2289.13 1362.47C2388.84 1364.77 2485.42 1309.82 2570.58 1261.43C2587.42 1251.86 2603.33 1242.82 2619.3 1234.15C2677.48 1202.55 2743.42 1166.73 2814.76 1151.6C2892.97 1135 2974.77 1151.15 3029.49 1164.73C3125.4 1188.54 3217.24 1228.36 3306.07 1266.87C3368.4 1293.89 3432.86 1321.84 3498.16 1344.01L3497.26 1346.66C3431.85 1324.45 3367.34 1296.49 3304.96 1269.44C3216.24 1230.98 3124.5 1191.2 3028.82 1167.45C2974.36 1153.93 2892.99 1137.86 2815.35 1154.34C2744.41 1169.39 2678.66 1205.11 2620.64 1236.61C2604.7 1245.27 2588.8 1254.3 2571.97 1263.86C2488.17 1311.48 2393.39 1365.32 2294.94 1365.32Z" fill="#F1E9D3"/>
<path d="M2293.01 1387.19C2290.63 1387.19 2288.25 1387.16 2285.87 1387.1C2179.21 1384.45 2074.22 1319.62 1981.59 1262.42C1960.62 1249.47 1940.82 1237.24 1921.31 1225.88C1910.23 1219.43 1899.13 1212.8 1887.36 1205.79C1789.53 1147.45 1678.64 1081.35 1566.35 1103.35C1472.75 1121.71 1386.17 1172.79 1302.44 1222.2C1276.01 1237.8 1248.67 1253.93 1222.05 1268.4C1126.11 1320.56 1006.71 1385.48 887.71 1335.81C817.1 1306.34 760.93 1252.79 706.61 1201C672.31 1168.31 636.85 1134.49 598.22 1107.25C490.13 1031.03 376.56 1037.03 286.63 1123.71C255.28 1153.92 227.8 1189.46 201.22 1223.82C154.19 1284.62 105.56 1347.49 33.9099 1382.93L32.6699 1380.42C103.75 1345.27 152.17 1282.66 199.01 1222.11C225.65 1187.67 253.2 1152.05 284.69 1121.7C331.03 1077.03 382.61 1053.28 438.01 1051.08C491.67 1048.95 546.13 1067.08 599.84 1104.96C638.64 1132.32 674.18 1166.2 708.55 1198.96C762.69 1250.57 818.67 1303.94 888.8 1333.21C1006.57 1382.37 1125.31 1317.81 1220.73 1265.93C1247.31 1251.48 1274.62 1235.37 1301.03 1219.78C1384.96 1170.25 1471.75 1119.05 1565.82 1100.6C1679.17 1078.39 1790.54 1144.79 1888.8 1203.38C1900.56 1210.39 1911.66 1217.01 1922.72 1223.46C1942.26 1234.84 1962.08 1247.08 1983.06 1260.04C2075.39 1317.05 2180.04 1381.67 2285.94 1384.3C2387.19 1386.92 2483.29 1336.85 2576.31 1288.53C2595.13 1278.75 2612.91 1269.52 2630.72 1260.73C2770.52 1191.73 2894.86 1154.21 3047.29 1195.35C3125.23 1216.39 3199.76 1250 3271.85 1282.51C3344.03 1315.06 3418.66 1348.72 3496.63 1369.7L3495.9 1372.4C3417.71 1351.37 3342.97 1317.66 3270.69 1285.06C3198.71 1252.6 3124.28 1219.03 3046.55 1198.05C2894.97 1157.15 2771.18 1194.53 2631.95 1263.24C2614.17 1272.01 2596.41 1281.24 2577.59 1291.02C2490.69 1336.16 2392.45 1387.19 2293 1387.19H2293.01Z" fill="#F1E9D3"/>
<path d="M41.5798 1424.5L40.0898 1422.13C103.07 1382.68 149.25 1324.02 193.91 1267.29C224.4 1228.55 255.94 1188.5 292.67 1154.65C340.05 1110.98 391.86 1087.56 446.65 1085.03C500.93 1082.56 555.13 1100.62 607.85 1138.78C645.55 1166.07 679.84 1199.88 713.01 1232.58C765.21 1284.04 819.18 1337.25 887.78 1366.41C1004.78 1416.13 1123.69 1349.83 1219.25 1296.56C1245.82 1281.75 1273.12 1265.23 1299.52 1249.26C1383.46 1198.48 1470.26 1145.96 1564.75 1126.75C1677.57 1103.83 1789.59 1169.51 1888.42 1227.48C1900.53 1234.58 1911.96 1241.29 1923.33 1247.8C1943.03 1259.07 1962.98 1271.16 1984.1 1283.96C2076.89 1340.2 2182.06 1403.94 2288.32 1406.74C2391.22 1409.44 2491.22 1361.76 2587.92 1315.63C2608.86 1305.64 2628.65 1296.21 2648.42 1287.3C2775.21 1230.22 2912.23 1178.43 3070.35 1225.6C3136.15 1245.23 3198.61 1275.41 3259.03 1304.6C3333.84 1340.75 3411.2 1378.12 3495.12 1395.47L3494.55 1398.21C3410.28 1380.79 3332.77 1343.34 3257.81 1307.12C3197.5 1277.98 3135.13 1247.85 3069.55 1228.28C2912.36 1181.37 2775.88 1232.97 2649.57 1289.84C2629.83 1298.73 2610.06 1308.16 2589.13 1318.14C2492.13 1364.41 2391.85 1412.26 2288.25 1409.52C2181.25 1406.7 2075.74 1342.76 1982.65 1286.34C1961.55 1273.55 1941.62 1261.47 1921.95 1250.21C1910.57 1243.7 1899.12 1236.99 1887.01 1229.88C1788.62 1172.17 1677.1 1106.76 1565.32 1129.48C1471.3 1148.59 1384.71 1200.98 1300.98 1251.64C1274.56 1267.63 1247.23 1284.16 1220.62 1298.99C1148.51 1339.19 1063.15 1386.76 975.08 1386.77C945.79 1386.77 916.21 1381.51 886.7 1368.97C817.61 1339.61 763.44 1286.21 711.06 1234.56C677.97 1201.94 643.75 1168.2 606.22 1141.04C501.34 1065.12 387.75 1070.82 294.58 1156.69C258.01 1190.39 226.55 1230.36 196.12 1269.01C151.31 1325.93 104.98 1384.79 41.5798 1424.49V1424.5Z" fill="#F1E9D3"/>
<path d="M48.2498 1464.8L46.5498 1462.57C92.1298 1427.86 135.39 1377.26 181.19 1323.68C241.48 1253.14 303.82 1180.21 374.36 1142.56C454.35 1099.87 533.91 1109.8 617.6 1172.91C653.6 1200.06 686.04 1233.74 717.41 1266.31C766.82 1317.61 817.91 1370.65 884.25 1399.6C999.56 1449.91 1119.44 1382.05 1215.78 1327.52C1242.5 1312.4 1269.96 1295.53 1296.51 1279.22C1381.05 1227.28 1468.48 1173.58 1563.94 1153.81C1677.26 1130.34 1790.82 1195.35 1891.03 1252.7C1903.48 1259.83 1915.24 1266.56 1926.91 1273.07C1946.92 1284.24 1967.15 1296.18 1988.56 1308.83C2082.56 1364.35 2189.11 1427.27 2296.4 1430.05C2401.48 1432.79 2505.3 1387.04 2605.74 1342.82C2628.94 1332.6 2650.85 1322.96 2672.72 1313.93C2820.24 1253.05 2954.14 1206.64 3099.07 1255.59C3155.46 1274.64 3208.06 1302.69 3258.93 1329.81C3331.89 1368.72 3407.32 1408.95 3493.82 1422.02L3493.4 1424.79C3406.43 1411.65 3330.77 1371.3 3257.61 1332.28C3206.84 1305.21 3154.35 1277.21 3098.18 1258.24C2954.17 1209.6 2820.78 1255.86 2673.8 1316.51C2651.96 1325.52 2630.07 1335.16 2606.88 1345.37C2509.05 1388.45 2407.96 1432.95 2305.4 1432.96C2302.38 1432.96 2299.37 1432.92 2296.34 1432.84C2188.33 1430.05 2081.45 1366.92 1987.15 1311.23C1965.75 1298.59 1945.54 1286.66 1925.56 1275.51C1913.87 1268.99 1902.1 1262.25 1889.65 1255.13C1789.88 1198.02 1676.78 1133.3 1564.52 1156.55C1469.54 1176.22 1382.33 1229.8 1297.99 1281.61C1271.42 1297.93 1243.94 1314.81 1217.18 1329.96C1144.3 1371.21 1058 1420.06 970.09 1420.06C941.15 1420.06 912.03 1414.77 883.16 1402.17C816.31 1373 765.03 1319.75 715.43 1268.26C684.14 1235.77 651.78 1202.18 615.95 1175.16C431.05 1035.72 305.13 1183.04 183.35 1325.51C137.45 1379.2 94.0998 1429.92 48.2798 1464.81L48.2498 1464.8Z" fill="#F1E9D3"/>
<path d="M53.0099 1502.71L51.1499 1500.62C86.3399 1469.38 122.74 1427.35 161.28 1382.85C228.42 1305.33 297.84 1225.17 376.12 1181.88C465.9 1132.25 550.85 1142.36 635.81 1212.82C666.82 1238.53 694.99 1270.04 722.24 1300.51C769.12 1352.93 817.59 1407.13 882.78 1434.94C993.56 1482.2 1112.78 1414.28 1208.57 1359.7L1213.44 1356.93C1239.94 1341.84 1266.01 1325.76 1293.6 1308.73C1378.96 1256.05 1467.23 1201.58 1563.55 1181.93C1677.68 1158.65 1793.33 1222.58 1895.36 1278.99C1907.56 1285.74 1919.09 1292.11 1930.54 1298.29C1951.29 1309.5 1972.18 1321.43 1994.31 1334.07C2089.52 1388.46 2197.44 1450.11 2305.78 1454.23C2413.64 1458.36 2521.72 1414.26 2626.27 1371.64C2649.8 1362.05 2672.02 1352.99 2694.19 1344.5L2710.38 1338.29C2843.33 1287.2 2994.02 1229.31 3136.48 1286.63C3183.99 1305.75 3226.9 1332.01 3268.39 1357.41C3338.9 1400.57 3405.49 1441.33 3492.83 1450.16L3492.55 1452.94C3404.57 1444.05 3337.71 1403.12 3266.93 1359.79C3225.53 1334.45 3182.72 1308.25 3135.43 1289.22C2993.99 1232.3 2843.85 1289.99 2711.38 1340.89L2695.19 1347.11C2673.05 1355.59 2650.84 1364.64 2627.33 1374.23C2527.09 1415.09 2423.57 1457.29 2319.89 1457.29C2315.15 1457.29 2310.42 1457.2 2305.67 1457.02C2196.64 1452.87 2088.41 1391.04 1992.92 1336.49C1970.81 1323.86 1949.93 1311.93 1929.21 1300.74C1917.74 1294.55 1906.21 1288.18 1894 1281.42C1792.39 1225.25 1677.23 1161.57 1564.11 1184.65C1468.28 1204.2 1380.22 1258.54 1295.07 1311.08C1268.67 1327.37 1241.36 1344.22 1214.82 1359.34L1209.95 1362.11C1136.48 1403.97 1049.3 1453.63 962.34 1453.64C935.29 1453.64 908.27 1448.84 881.67 1437.49C815.91 1409.44 767.22 1354.99 720.14 1302.35C692.96 1271.96 664.86 1240.53 634.01 1214.95C445.64 1058.74 295.68 1231.89 163.38 1384.66C124.78 1429.23 88.3199 1471.33 52.9899 1502.69L53.0099 1502.71Z" fill="#F1E9D3"/>
<path d="M54.9397 1537.04L52.9697 1535.05C77.4097 1510.81 104.59 1479.97 133.37 1447.32C233.36 1333.87 357.79 1192.67 490.47 1184.85C546.17 1181.57 599.72 1202.6 649.66 1247.35C678.06 1272.8 703.33 1304.06 727.78 1334.29C769.67 1386.1 813 1439.68 874.1 1467.22C981.16 1515.49 1106.12 1444.84 1197.36 1393.27L1205.67 1388.58C1232.6 1373.39 1259.09 1357.18 1287.13 1340.02C1374.21 1286.74 1464.26 1231.64 1562.44 1212.33C1679.46 1189.3 1798.68 1252.44 1903.87 1308.14C1916.27 1314.71 1927.98 1320.9 1939.65 1326.94C1961.04 1338.02 1982.55 1349.79 2005.32 1362.26C2103.38 1415.94 2214.52 1476.78 2325.39 1480.39C2436.07 1484.04 2548.14 1441.23 2656.54 1399.87C2682.68 1389.9 2707.37 1380.48 2731.98 1371.73C2745.68 1366.86 2759.49 1361.79 2774.09 1356.43C2903.87 1308.81 3050.96 1254.84 3177.28 1316.78C3217.99 1336.75 3252.67 1362.5 3286.22 1387.4C3347.35 1432.78 3405.09 1475.65 3492.44 1480.61L3492.28 1483.4C3404.09 1478.39 3346.03 1435.28 3284.55 1389.64C3251.11 1364.81 3216.52 1339.14 3176.05 1319.28C3050.81 1257.86 2904.32 1311.62 2775.06 1359.04C2760.44 1364.4 2746.63 1369.47 2732.92 1374.35C2708.34 1383.09 2683.67 1392.5 2657.54 1402.47C2548.88 1443.93 2436.52 1486.83 2325.3 1483.17C2213.76 1479.53 2102.31 1418.52 2003.98 1364.69C1981.22 1352.23 1959.73 1340.46 1938.36 1329.41C1926.68 1323.36 1914.96 1317.16 1902.56 1310.59C1797.78 1255.11 1679.02 1192.23 1562.98 1215.05C1465.29 1234.27 1375.46 1289.23 1288.59 1342.38C1261.76 1358.8 1234.01 1375.77 1207.04 1390.99L1198.73 1395.68C1106.97 1447.56 981.29 1518.6 872.94 1469.75C811.22 1441.93 767.69 1388.09 725.59 1336.02C701.21 1305.88 676.01 1274.7 647.78 1249.41C598.42 1205.18 545.55 1184.39 490.62 1187.62C359.11 1195.37 235.1 1336.08 135.46 1449.14C106.65 1481.83 79.4397 1512.7 54.9397 1537.01V1537.04Z" fill="#F1E9D3"/>
</svg>
