<svg width="3006" height="1503" viewBox="0 0 3006 1503" fill="none" xmlns="http://www.w3.org/2000/svg">
<mask id="mask0_61_390" style="mask-type:luminance" maskUnits="userSpaceOnUse" x="0" y="0" width="3006" height="1503">
<path d="M3005.5 0.5V1502.5H0.5V0.5H3005.5Z" fill="white" stroke="white"/>
</mask>
<g mask="url(#mask0_61_390)">
<path d="M-1255.79 298.083C-1122.18 467.659 -985.742 639.903 -808.125 762.623C-630.508 885.343 -358.991 1014.68 -152.216 952.527C108.366 874.221 195.916 374.623 441.469 257.389C782.575 94.5019 1148.14 539.089 1489.81 700.774C1831.48 862.46 2274.57 925.661 2642.76 840.065C2809.67 801.25 3112.38 709.379 3266.32 634.154C3810.29 368.461 4452.04 309.093 5035.5 470.477C5366.09 561.935 5673.83 719.9 5993.14 845.138C6625.04 1092.98 7307.02 1212.36 7985.55 1193.91" stroke="#F1E9D3" stroke-miterlimit="10"/>
<path d="M-1250.01 341.483C-1119.47 492.798 -986.908 648.659 -812.034 754.996C-667.032 843.147 -457.739 935.056 -273.884 932.989C-235.708 932.576 -198.697 928.255 -163.602 918.974C94.9142 850.174 183.629 398.222 429.52 290.607C451.877 280.762 474.384 273.285 497.042 267.874C817.895 191.146 1149.01 545.779 1463.88 675.6C1552.37 712.086 1648.04 742.784 1747.76 769.463C2026.91 844.65 2330.66 875.8 2596.02 832.438C2759.43 805.723 3051.99 729.784 3204.73 662.9C3242.08 646.555 3280.07 630.924 3318.47 615.293C3829.15 407.277 4406.08 313.114 4946.07 454.735C5266.51 538.79 5564.37 692.472 5873.65 815.041C6483.11 1056.08 7139.93 1179.44 7792.42 1172.57" stroke="#F1E9D3" stroke-width="0.97" stroke-miterlimit="10"/>
<path d="M-1244.26 384.917C-1116.8 517.933 -987.847 657.599 -816.017 747.403C-673.082 822.102 -466.645 899.394 -284.932 897.44C-246.831 897.027 -210.007 893.42 -175.1 885.491C81.3116 826.236 171.454 422.455 417.495 323.933C439.815 314.99 462.285 308.039 484.98 302.966C805.194 230.709 1127.51 541.981 1437.88 650.572C1525.47 681.234 1620.42 707.048 1719.69 732.486C1995.42 804.104 2290.5 848.518 2549.12 824.92C2709.23 810.304 2991.5 750.334 3142.96 691.717C3180.12 677.326 3218.15 663.423 3256.55 648.506C3759.49 453.153 4319.55 306.122 4856.42 439.063C5166.64 515.866 5454.69 665.114 5753.9 785.053C6340.93 1019.3 6972.57 1146.68 7598.98 1151.37" stroke="#F1E9D3" stroke-width="0.95" stroke-miterlimit="10"/>
<path d="M-1238.47 428.356C-1114.1 543.072 -988.412 666.619 -819.925 739.815C-678.718 801.175 -475.475 863.775 -295.904 861.896C-257.878 861.52 -221.205 858.702 -186.524 852.014C67.9343 802.979 159.204 446.392 405.508 357.226C427.79 349.148 450.222 342.76 472.955 338.025C792.493 270.24 1106.24 538.075 1411.88 625.474C1498.64 650.274 1592.84 671.015 1691.66 695.439C1964.12 762.811 2250.59 812.372 2502.31 817.332C2659.22 820.413 2931.11 770.814 3081.3 720.464C3118.31 708.064 3156.3 695.852 3194.74 681.686C3689.86 498.884 4233.01 299.248 4766.88 423.358C5066.76 493.06 5345.12 637.724 5634.29 755.033C6198.93 982.474 6805.39 1113.84 7405.73 1130.14" stroke="#F1E9D3" stroke-width="0.93" stroke-miterlimit="10"/>
<path d="M-1232.72 471.791C-1111.43 568.208 -988.598 675.635 -823.869 732.223C-684.015 780.282 -484.341 828.115 -306.912 826.349C-268.961 825.973 -232.476 823.906 -197.944 818.533C54.4093 779.192 146.881 470.288 393.524 390.516C415.73 383.339 438.2 377.515 460.971 373.044C779.87 309.692 1085.2 534.053 1385.95 600.373C1471.96 619.348 1565.3 635.129 1663.71 658.388C1932.78 722.003 2210.95 794.222 2455.53 809.74C2609.43 819.51 2870.81 791.291 3019.64 749.207C3056.5 738.799 3094.45 728.278 3132.89 714.826C3620.09 544.423 4146.33 292.408 4677.34 407.575C4966.81 470.363 5235.55 610.292 5514.66 724.896C6056.86 945.537 6638.15 1080.92 7212.45 1108.8" stroke="#F1E9D3" stroke-width="0.9" stroke-miterlimit="10"/>
<path d="M-1226.94 515.229C-1108.72 593.347 -988.259 684.504 -827.814 724.634C-688.824 759.391 -493.209 792.495 -317.921 790.804C-280.046 790.466 -243.711 789.113 -209.405 785.017C40.8446 755.371 134.557 494.112 381.5 423.809C403.669 417.496 426.101 412.236 448.909 408.102C767.169 349.222 1064.27 529.958 1359.95 575.274C1445.25 588.35 1537.72 599.284 1635.64 621.341C1901.33 681.235 2171.42 767.357 2408.67 802.151C2559.68 824.283 2810.46 811.846 2957.94 777.953C2994.65 769.536 3032.6 760.706 3071.04 748.006C3550.2 589.815 4059.49 285.796 4587.76 391.87C4866.75 447.894 5125.76 583.427 5395.02 694.875C5914.34 909.804 6470.9 1048.08 7019.16 1087.57" stroke="#F1E9D3" stroke-width="0.88" stroke-miterlimit="10"/>
<path d="M-1221.19 558.665C-1106.06 618.522 -987.434 693.071 -831.76 717.044C-693.184 738.386 -502.077 756.836 -328.894 755.22C-291.094 754.882 -254.947 754.243 -220.829 751.5C27.3167 731.51 122.194 517.934 369.55 457.062C391.644 451.614 414.076 446.992 436.922 443.122C754.656 389.39 1043.61 525.637 1334.03 550.173C1418.64 557.312 1510.18 563.4 1607.68 584.291C1869.99 640.466 2132.12 740.791 2361.89 794.523C2510.08 829.205 2750.26 832.361 2896.28 806.698C2932.88 800.272 2970.75 793.096 3009.23 781.147C3480.23 635.055 3972.54 279.257 4498.22 376.088C4766.69 425.537 5016.15 556.072 5275.38 664.739C5772.2 873.018 6303.69 1015.16 6825.87 1066.19" stroke="#F1E9D3" stroke-width="0.85" stroke-miterlimit="10"/>
<path d="M-1215.4 602.102C-1103.35 643.66 -984.766 731.436 -835.668 709.454C-698.332 689.201 -510.907 721.215 -339.866 719.675C-302.141 719.336 -266.182 719.449 -232.251 718.021C13.7522 707.688 109.832 541.757 357.563 490.354C379.62 485.77 402.015 481.75 424.898 478.18C741.993 428.994 1023.35 537.849 1308.02 525.074C1391.97 521.316 1482.56 527.554 1579.65 547.281C1838.54 599.773 2092.81 714.564 2315.07 786.971C2460.52 834.354 2690.03 853.028 2834.62 835.481C2871.07 831.047 2908.87 825.523 2947.42 814.364C3410.23 680.183 3885.48 273.021 4408.71 360.42C4666.55 403.481 4906.58 528.794 5155.82 634.755C5630.16 836.383 6136.52 982.361 6632.66 1045" stroke="#F1E9D3" stroke-width="0.83" stroke-miterlimit="10"/>
<path d="M-1209.65 645.538C-1100.69 668.797 -979.544 740.19 -839.652 701.863C-705.434 665.077 -519.814 685.556 -350.914 684.128C-313.264 683.827 -277.493 685.03 -243.713 684.541C0.111513 681.009 97.4308 565.541 345.539 523.683C367.52 519.963 389.915 516.506 412.873 513.274C729.292 468.598 1002.65 516.393 1282.06 500.048C1365.51 495.163 1454.98 491.819 1551.66 510.306C1807.17 559.153 2053.51 688.712 2268.25 779.456C2410.96 839.763 2629.84 873.769 2772.92 864.3C2809.26 861.895 2846.98 857.987 2885.57 847.579C3340.08 725.122 3798.27 267.008 4319.13 344.713C4566.3 381.574 4796.94 501.476 5036.18 604.732C5488.02 799.708 5969.28 949.558 6439.38 1023.77" stroke="#F1E9D3" stroke-width="0.8" stroke-miterlimit="10"/>
<path d="M-1203.87 688.938C-1097.98 693.898 -982.699 715.466 -843.559 694.236C-703.968 672.931 -528.643 649.898 -361.885 648.545C-324.31 648.245 -288.727 649.785 -255.135 651.025C-13.4146 659.855 85.0319 589.214 333.553 556.937C355.497 554.082 377.891 551.188 400.85 548.295C716.63 508.09 982.285 511.321 1256.09 474.911C1338.98 463.902 1427.36 455.936 1523.63 473.22C1775.72 518.423 2014.09 663.049 2221.43 771.829C2361.33 845.25 2569.68 889.777 2711.26 893.008C2747.48 893.835 2785.1 890.303 2823.76 880.721C3269.93 769.837 3710.94 261.222 4229.59 328.97C4466.01 359.856 4687.33 474.122 4916.54 574.635C5345.91 762.923 5802.03 916.643 6246.09 1002.46" stroke="#F1E9D3" stroke-width="0.78" stroke-miterlimit="10"/>
<path d="M-1198.08 732.375C-1095.31 719.036 -980.896 721.591 -847.467 686.646C-707.274 649.935 -537.473 614.277 -372.857 612.999C-335.395 612.736 -299.961 614.953 -266.557 617.508C-27.0167 635.882 72.6322 612.887 321.604 590.191C343.473 588.2 365.868 585.908 388.863 583.277C703.967 547.544 961.957 505.91 1230.17 449.773C1312.49 432.526 1399.82 420.089 1495.67 436.134C1744.31 477.729 1974.64 637.611 2174.65 764.201C2311.61 850.887 2509.52 915.215 2649.6 921.753C2685.75 923.444 2723.25 922.655 2761.95 913.862C3199.66 814.364 3623.54 255.699 4140.09 313.188C4365.69 338.288 4577.8 446.73 4796.97 544.538C5203.84 726.1 5634.9 883.765 6052.88 981.159" stroke="#F1E9D3" stroke-width="0.75" stroke-miterlimit="10"/>
<path d="M-1192.33 775.813C-1092.64 744.212 -979.317 727.078 -851.449 679.057C-710.918 626.264 -546.378 578.619 -383.903 577.417C-346.516 577.154 -311.271 580.085 -278.054 583.992C-40.6556 611.873 60.1206 636.485 309.543 623.484C331.337 622.357 353.732 620.628 376.803 618.336C691.268 587.036 941.48 500.313 1204.13 424.674C1285.89 401.153 1372.16 384.281 1467.6 399.086C1712.82 437.112 1934.85 612.399 2127.8 756.612C2261.71 856.712 2449.29 936.108 2587.9 950.499C2623.94 954.257 2661.32 955.008 2700.1 947.005C3129.36 858.703 3535.96 250.59 4050.51 297.446C4265.29 316.985 4468.16 419.339 4677.3 514.441C5061.73 689.278 5467.61 850.85 5859.56 959.818" stroke="#F1E9D3" stroke-width="0.72" stroke-miterlimit="10"/>
<path d="M-1186.54 819.248C-1089.94 769.349 -978.077 732.149 -855.357 671.466C-714.901 602.027 -555.208 542.997 -394.875 541.87C-357.563 541.644 -322.506 545.251 -289.44 550.512C-54.1825 587.861 47.7584 660.08 297.595 656.774C319.313 656.473 341.708 655.384 364.816 653.392C678.605 626.564 920.964 494.45 1178.2 399.611C1259.33 369.701 1344.62 348.546 1439.61 362.073C1681.41 396.567 1894.95 587.335 2080.98 749.058C2211.7 862.685 2389.13 957.036 2526.21 979.28C2562.13 985.104 2599.4 987.359 2638.25 980.219C3058.98 902.928 3448.33 246.004 3960.93 281.775C4164.81 295.979 4358.55 392.02 4557.66 484.455C4919.62 652.528 5300.37 818.083 5666.24 938.624" stroke="#F1E9D3" stroke-width="0.7" stroke-miterlimit="10"/>
<path d="M-1180.79 862.687C-1087.27 794.488 -977.326 736.923 -859.303 663.877C-719.449 577.342 -564.076 507.34 -405.848 506.325C-368.611 506.1 -333.704 510.421 -300.864 517.034C-67.7483 563.815 35.3575 683.642 285.645 690.067C307.325 690.631 329.682 690.105 352.829 688.451C665.941 666.019 900.297 488.402 1152.27 374.512C1232.76 338.139 1317.04 312.739 1411.65 325.026C1649.99 355.988 1854.85 562.35 2034.23 741.47C2161.61 868.661 2329.01 978.004 2464.62 1008.03C2500.43 1015.95 2537.59 1019.64 2576.52 1013.36C2988.68 946.855 3365.89 189.756 3871.5 265.995C4062.53 294.816 4249.09 364.555 4438.13 454.359C4777.66 615.593 5133.23 785.169 5473.06 917.321" stroke="#F1E9D3" stroke-width="0.68" stroke-miterlimit="10"/>
<path d="M-1175.01 906.121C-1084.57 819.624 -976.988 741.543 -863.248 656.285C-724.597 552.353 -572.944 471.717 -416.857 470.777C-379.696 470.552 -344.976 475.587 -312.324 483.553C-81.3126 539.765 22.9205 707.162 273.621 723.394C295.227 724.784 317.584 724.86 340.767 723.544C653.241 705.508 879.367 482.238 1126.27 349.485C1206.01 306.612 1289.42 277.041 1383.62 288.088C1618.54 315.593 1814.5 537.473 1987.38 733.99C2111.26 874.784 2268.74 999.157 2402.88 1036.88C2438.58 1046.91 2475.63 1052.06 2514.63 1046.65C2918.22 990.74 3276.76 187.387 3781.89 250.4C3962.58 272.945 4139.45 337.273 4318.46 424.41C4635.55 578.806 4965.99 752.44 5279.74 896.164" stroke="#F1E9D3" stroke-width="0.65" stroke-miterlimit="10"/>
<path d="M-1169.26 949.558C-1081.9 844.761 -977.176 746.202 -867.194 648.695C-730.309 527.29 -581.812 436.058 -427.867 435.231C-390.781 435.043 -356.25 440.755 -323.785 450.036C-94.8778 515.604 10.52 730.608 261.596 756.648C283.127 758.902 305.484 759.579 328.743 758.564C640.54 744.924 858.25 475.887 1100.27 324.347C1179.22 274.936 1261.81 241.269 1355.59 251.001C1587.05 275.049 1773.95 512.41 1940.56 726.362C2060.8 880.758 2208.47 1020.2 2341.22 1065.63C2376.77 1077.8 2413.74 1084.3 2452.78 1079.79C2847.81 1034.29 3187.52 187.124 3692.31 234.618C3862.71 250.663 4029.88 309.768 4198.82 394.312C4493.52 541.794 4798.74 719.524 5086.45 874.821" stroke="#F1E9D3" stroke-width="0.62" stroke-miterlimit="10"/>
<path d="M-1163.47 992.995C-1079.19 869.937 -977.665 751.012 -871.102 641.105C-736.433 502.228 -590.68 400.437 -438.839 399.648C-401.828 399.46 -367.484 405.848 -335.17 416.519C-108.367 491.444 -1.80425 753.98 249.648 789.902C271.141 792.983 293.498 794.223 316.757 793.547C627.878 783.74 836.945 469.425 1074.34 299.21C1152.42 243.223 1234.23 205.46 1327.6 213.915C1555.64 234.506 1733.3 487.31 1893.74 718.735C2010.22 886.695 2148.12 1041.28 2279.52 1094.33C2314.92 1108.65 2351.82 1116.5 2390.93 1112.93C2777.39 1077.61 3098.28 189.566 3602.77 218.875C3762.84 228.156 3920.35 282.264 4079.18 364.215C4351.52 504.745 4631.49 686.646 4893.17 853.516" stroke="#F1E9D3" stroke-width="0.6" stroke-miterlimit="10"/>
<path d="M-1157.72 1036.39C-1076.52 895.037 -978.566 755.897 -875.084 633.478C-743.045 477.278 -599.584 364.741 -449.885 364.065C-412.949 363.915 -378.756 370.979 -346.667 383.003C-121.893 467.246 -14.2407 777.352 237.624 823.194C259.042 827.102 281.399 828.943 304.696 828.605C615.178 823.269 815.415 463.075 1048.34 274.11C1125.48 211.548 1206.61 169.727 1299.57 176.866C1524.15 194.076 1692.45 462.211 1846.92 711.145C1959.57 892.67 2087.78 1062.4 2217.86 1123.08C2253.11 1139.54 2289.93 1148.71 2329.12 1146.08C2707.09 1120.75 3010.25 233.154 3513.22 203.094C3662.66 194.151 3810.82 254.684 3959.58 334.118C4209.56 467.622 4464.29 653.731 4699.92 832.212" stroke="#F1E9D3" stroke-width="0.58" stroke-miterlimit="10"/>
<path d="M-1151.94 1079.83C-1073.82 920.176 -979.618 761.046 -878.992 625.888C-749.884 452.48 -608.414 329.121 -460.857 328.52C-423.996 328.37 -389.991 336.11 -358.089 349.524C-135.382 443.086 -26.5276 800.687 225.638 856.486C247.018 861.221 269.338 863.701 292.672 863.663C602.478 862.799 793.697 456.726 1022.34 249.049C1098.47 179.911 1178.99 134.069 1271.54 139.856C1492.7 153.721 1651.5 437.036 1800.11 703.594C1908.81 898.608 2027.36 1083.59 2156.17 1151.86C2191.22 1170.46 2228.01 1180.95 2267.28 1179.29C2636.75 1163.77 2923.11 233.793 3423.65 187.426C3562.37 174.575 3701.29 227.18 3839.9 304.134C4067.61 430.536 4297.04 620.966 4506.6 811.02" stroke="#F1E9D3" stroke-width="0.55" stroke-miterlimit="10"/>
<path d="M-1146.19 1123.27C-1071.15 945.313 -980.934 766.419 -882.938 618.298C-756.987 427.906 -617.283 293.462 -471.867 292.974C-435.081 292.861 -401.226 301.24 -369.551 316.045C-148.722 418.662 -38.7403 823.646 213.613 889.778C234.956 895.301 257.238 898.42 280.647 898.72C589.814 902.29 771.79 450.413 996.376 223.949C1071.45 148.235 1151.37 98.4856 1243.51 102.807C1461.22 113.591 1610.5 411.786 1753.25 696.003C1857.97 904.469 1966.86 1104.74 2094.47 1180.65C2129.37 1201.39 2166.12 1213.11 2205.43 1212.47C2566.48 1206.53 2836.42 235.973 3334.1 171.682C3462.24 155.149 3591.87 199.525 3720.3 274.036C3925.8 393.261 4129.83 588.05 4313.35 789.715" stroke="#F1E9D3" stroke-width="0.53" stroke-miterlimit="10"/>
<path d="M-1140.4 1166.7C-976.049 718.359 -737.635 258.141 -482.839 257.389C-169.802 256.487 -73.1592 924.834 268.661 933.739C680.67 944.486 850.359 53.4698 1215.55 65.7568C1630.49 79.7347 1765.5 1241.85 2143.65 1245.61C2496.41 1249.11 2750.49 240.03 3244.6 155.937C3545.01 104.797 3861.13 417.722 4120.1 768.409" stroke="#F1E9D3" stroke-width="0.5" stroke-miterlimit="10"/>
</g>
</svg>
