<svg xmlns="http://www.w3.org/2000/svg" viewBox="0 0 512 512">
  <defs>
    <linearGradient id="gradient" x1="0%" y1="0%" x2="100%" y2="100%">
      <stop offset="0%" style="stop-color:#92563E"/>
      <stop offset="100%" style="stop-color:#7A4833"/>
    </linearGradient>
    <linearGradient id="pulseGradient" x1="0%" y1="0%" x2="100%" y2="0%">
      <stop offset="0%" style="stop-color:#10B981"/>
      <stop offset="100%" style="stop-color:#059669"/>
    </linearGradient>
  </defs>

  <!-- Background circle -->
  <circle cx="256" cy="256" r="240" fill="url(#gradient)"/>

  <!-- Stylized S letter -->
  <path d="M320 160c0-35-30-60-70-60-50 0-90 35-90 80 0 40 25 60 70 75 45 15 60 30 60 55 0 30-25 50-60 50-40 0-70-25-75-60"
        fill="none"
        stroke="white"
        stroke-width="40"
        stroke-linecap="round"
        stroke-linejoin="round"/>

  <!-- Health pulse/heartbeat line -->
  <path d="M140 380 L180 380 L200 340 L230 420 L260 360 L280 380 L372 380"
        fill="none"
        stroke="url(#pulseGradient)"
        stroke-width="12"
        stroke-linecap="round"
        stroke-linejoin="round"/>

  <!-- Small plus sign accent -->
  <g transform="translate(380, 120)">
    <rect x="-6" y="-20" width="12" height="40" rx="4" fill="white" opacity="0.9"/>
    <rect x="-20" y="-6" width="40" height="12" rx="4" fill="white" opacity="0.9"/>
  </g>
</svg>
